<?xml version="1.0" standalone="no"?>
<!DOCTYPE svg PUBLIC "-//W3C//DTD SVG 1.1//EN" "http://www.w3.org/Graphics/SVG/1.1/DTD/svg11.dtd" >
<svg xmlns="http://www.w3.org/2000/svg">
<metadata>Generated by IcoMoon</metadata>
<defs>
<font id="Flat-Icons" horiz-adv-x="1024">
<font-face units-per-em="1024" ascent="1024" descent="0" />
<missing-glyph horiz-adv-x="1024" />
<glyph unicode="&#x20;" horiz-adv-x="0" d="" />
<glyph unicode="&#xe900;" glyph-name="news" d="M725.333 640h-213.333c-23.552 0-42.667 19.115-42.667 42.667s19.115 42.667 42.667 42.667h213.333c23.595 0 42.667-19.115 42.667-42.667s-19.072-42.667-42.667-42.667zM725.333 298.667h-213.333c-23.552 0-42.667 19.072-42.667 42.667s19.115 42.667 42.667 42.667h213.333c23.595 0 42.667-19.072 42.667-42.667s-19.072-42.667-42.667-42.667zM725.333 469.333h-213.333c-23.552 0-42.667 19.115-42.667 42.667s19.115 42.667 42.667 42.667h213.333c23.595 0 42.667-19.115 42.667-42.667s-19.072-42.667-42.667-42.667zM298.667 298.667v308.139h-128v-308.139c0-30.336 0-85.333 64-85.333s64 54.997 64 85.333zM853.333 260.736v559.403h-469.589v-559.36c0-18.987-3.84-37.973-15.488-56.917h426.88c31.061 0 58.197 26.539 58.197 56.832v0.043zM434.432 128h-213.333c-73.685 0-135.765 60.672-135.765 132.736v384c0 22.741 15.531 37.931 38.827 37.931h174.507v175.403c0 22.741 15.531 37.931 38.827 37.931h562.347c23.296 0 38.827-15.189 38.827-37.931v-597.333c0-72.064-62.080-132.736-135.765-132.736h-368.469z" />
<glyph unicode="&#xe901;" glyph-name="pin-active" d="M587.292 397.079c1.891 6.224 5.435 12.313 10.549 17.427 3.661 3.661 7.823 6.518 12.264 8.571l-0.277-0.142c20.818 9.551 41.619 23.833 59.922 42.136 83.312 83.312 83.312 218.387 0 301.699s-218.387 83.312-301.699 0c-83.312-83.312-83.312-218.387 0-301.699 23.766-23.766 51.744-40.752 81.531-50.959l-1.284 0.497c5.705-1.942 11.305-5.34 16.061-10.096s8.155-10.356 10.196-16.317l-0.099 0.257 58.349-122.972 54.487 131.601zM580.625 170.654l272.706 0.030c10.916-0.004 21.832-4.17 30.161-12.499 16.666-16.666 16.666-43.686 0-60.352-8.337-8.337-19.264-12.503-30.191-12.499h-682.624c-10.927-0.004-21.854 4.163-30.191 12.499-16.666 16.666-16.666 43.686 0 60.352 8.329 8.329 19.245 12.496 30.161 12.499h318.111l-88.307 170.973c-32.511 13.651-64.768 34.962-92.83 63.024-116.637 116.637-116.637 305.742 0 422.378s305.742 116.637 422.378 0c116.637-116.637 116.637-305.742 0-422.378-20.808-20.808-43.922-37.904-68.52-51.287l1.872 1.116-82.726-183.855z" />
<glyph unicode="&#xe902;" glyph-name="pin" horiz-adv-x="1067" d="M576.128 436.821c5.738 3.064 12.55 4.863 19.782 4.863 5.178 0 10.141-0.922 14.732-2.612l-0.296 0.095c21.475-7.967 46.282-12.577 72.165-12.577 117.821 0 213.333 95.513 213.333 213.333s-95.513 213.333-213.333 213.333c-117.821 0-213.333-95.513-213.333-213.333 0-33.61 7.772-65.405 21.618-93.685l-0.557 1.259c2.661-5.407 4.217-11.77 4.217-18.496s-1.556-13.089-4.329-18.748l0.111 0.252-75.861-158.379 161.707 84.693zM599.851 352.939l-259.669-135.936c-36.352-19.029-75.947 19.2-58.24 56.235l122.88 256.512c-13.336 32.642-21.076 70.52-21.076 110.206 0 164.949 133.718 298.667 298.667 298.667s298.667-133.718 298.667-298.667c0-164.949-133.718-298.667-298.667-298.667-29.427 0-57.859 4.256-84.716 12.185l2.113-0.535zM213.163 85.333c-23.564 0-42.667 19.103-42.667 42.667s19.103 42.667 42.667 42.667v0h682.667c23.564 0 42.667-19.103 42.667-42.667s-19.103-42.667-42.667-42.667v0h-682.667z" />
<glyph unicode="&#xe903;" glyph-name="align-top" d="M810.667 85.333h-597.333c-72.533 0-128 55.467-128 128v597.333c0 72.533 55.467 128 128 128h597.333c72.533 0 128-55.467 128-128v-597.333c0-72.533-55.467-128-128-128zM213.333 853.333c-25.6 0-42.667-17.067-42.667-42.667v-597.333c0-25.6 17.067-42.667 42.667-42.667h597.333c25.6 0 42.667 17.067 42.667 42.667v597.333c0 25.6-17.067 42.667-42.667 42.667h-597.333zM528.64 747.179l126.293-157.867c2.905-3.614 4.663-8.258 4.663-13.312 0-11.771-9.534-21.316-21.301-21.333h-252.589c-11.769 0.017-21.303 9.562-21.303 21.333 0 5.054 1.758 9.698 4.695 13.354l-0.032-0.042 126.293 157.867c3.942 4.885 9.929 7.983 16.64 7.983s12.698-3.098 16.608-7.943l0.032-0.041z" />
<glyph unicode="&#xe904;" glyph-name="folder-back" horiz-adv-x="1067" d="M864.896 120.235h-620.629c-65.92 0-116.352 50.432-116.352 116.352v543.061c0 65.92 50.432 116.352 116.352 116.352h193.963c11.605 0 23.253-7.765 31.019-15.531l65.92-100.821h329.728c65.92 0 116.352-50.475 116.352-116.395v-426.667c0-65.92-50.432-116.352-116.352-116.352zM244.267 818.432c-23.253 0-38.784-15.531-38.784-38.827v-543.019c0-23.253 15.531-38.784 38.827-38.784h620.587c23.253 0 38.784 15.531 38.784 38.827v426.667c0 23.253-15.531 38.784-38.827 38.784h-349.013c-11.648 0-23.296 7.723-31.019 15.488l-66.005 100.864h-174.507zM367.701 456.491c-0.038 0-0.083 0-0.129 0-14.539 0-26.325 11.786-26.325 26.325 0 0.060 0 0.12 0.001 0.18v-0.009 112.043c0 14.586 11.824 26.411 26.411 26.411s26.411-11.824 26.411-26.411v0-51.115l41.685 39.125c35.212 35.155 83.827 56.895 137.52 56.895 107.5 0 194.645-87.146 194.645-194.645 0-103.569-80.889-188.245-182.938-194.299l-0.534-0.025c-86.571-4.949-170.325 35.712-199.125 117.461-1.102 2.798-1.74 6.039-1.74 9.429 0 14.586 11.824 26.411 26.411 26.411 11.673 0 21.578-7.573 25.068-18.074l0.054-0.187c20.992-59.605 83.2-85.931 146.304-82.304 74.727 4.45 133.643 66.139 133.643 141.588 0 78.327-63.497 141.824-141.824 141.824-39.394 0-75.037-16.062-100.737-41.993l-0.010-0.010-38.187-35.84h45.525c14.586 0 26.411-11.824 26.411-26.411s-11.824-26.411-26.411-26.411h-112.128z" />
<glyph unicode="&#xe905;" glyph-name="search-zoom" d="M925.867 157.867l-157.867 157.867c51.2 64 85.333 149.333 85.333 238.933 0 213.333-170.667 384-384 384s-384-170.667-384-384 170.667-384 384-384c89.6 0 174.933 29.867 238.933 85.333l157.867-157.867c8.533-8.533 21.333-12.8 29.867-12.8s21.333 4.267 29.867 12.8c17.067 17.067 17.067 42.667 0 59.733zM170.667 554.667c0 166.4 132.267 298.667 298.667 298.667s298.667-132.267 298.667-298.667c0-81.067-34.133-157.867-85.333-209.067-55.467-55.467-128-85.333-209.067-85.333-170.667-4.267-302.933 128-302.933 294.4zM515.712 595.456h86.827c23.099-1.057 41.426-20.042 41.426-43.307s-18.327-42.249-41.332-43.303l-0.095-0.003h-86.827v-86.613c0-23.893-19.413-43.264-43.392-43.264-0.025 0-0.055 0-0.085 0-23.926 0-43.325 19.384-43.349 43.304v86.615h-86.827c-0.013 0-0.028 0-0.043 0-23.896 0-43.276 19.335-43.349 43.214v0.007c0 23.893 19.456 43.307 43.392 43.307h86.827v86.613c0 23.893 19.456 43.264 43.435 43.264s43.392-19.371 43.392-43.307v-86.613z" />
<glyph unicode="&#xe906;" glyph-name="tasks" d="M853.333 777.472v33.195c0 23.564-19.103 42.667-42.667 42.667v0h-597.333c-23.564 0-42.667-19.103-42.667-42.667v0-33.195h682.667zM853.333 692.139h-682.667v-478.805c0-23.564 19.103-42.667 42.667-42.667v0h597.333c23.564 0 42.667 19.103 42.667 42.667v0 478.805zM213.333 938.667h597.333c70.692 0 128-57.308 128-128v0-597.333c0-70.692-57.308-128-128-128v0h-597.333c-70.692 0-128 57.308-128 128v0 597.333c0 70.692 57.308 128 128 128v0zM650.795 582.997c7.882 9.433 19.65 15.391 32.81 15.391 23.564 0 42.667-19.103 42.667-42.667 0-11.397-4.469-21.751-11.749-29.404l0.017 0.018-259.413-291.883-145.664 163.84c-6.703 7.504-10.8 17.46-10.8 28.373 0 23.567 19.105 42.672 42.672 42.672 12.654 0 24.021-5.508 31.835-14.257l0.037-0.042 81.92-92.16 195.669 220.16z" />
<glyph unicode="&#xe907;" glyph-name="page-builder" horiz-adv-x="1067" d="M904.192 249.941v-36.608c0-70.692-57.308-128-128-128v0h-520.107c-70.692 0-128 57.308-128 128v0 597.333c0 70.692 57.308 128 128 128v0h520.107c70.692 0 128-57.308 128-128v0-128h-85.333v128c0 23.552-9.216 42.667-42.24 42.667h-520.533c-23.564 0-42.667-19.103-42.667-42.667v0-597.333c0-23.564 19.103-42.667 42.667-42.667v0h520.533c33.024 0 42.24 19.115 42.24 42.667v42.667h0.427c0.023 23.547 19.117 42.627 42.667 42.627 23.564 0 42.667-19.103 42.667-42.667 0-2.123-0.155-4.21-0.455-6.25l0.028 0.232zM392.619 682.667v-128h426.667v128h-426.667zM349.952 768h512c23.564 0 42.667-19.103 42.667-42.667v0-213.333c0-23.564-19.103-42.667-42.667-42.667v0h-512c-23.564 0-42.667 19.103-42.667 42.667v0 213.333c0 23.564 19.103 42.667 42.667 42.667v0zM307.285 324.267c0-23.564 19.103-42.667 42.667-42.667v0h341.333c23.564 0 42.667 19.103 42.667 42.667s-19.103 42.667-42.667 42.667v0h-341.333c-23.564 0-42.667-19.103-42.667-42.667v0z" />
<glyph unicode="&#xe908;" glyph-name="send" d="M201.007 635.199l285.656-126.958c9.653-4.29 17.371-12.008 21.661-21.661l126.958-285.656 233.84 668.115-668.115-233.84zM437.010 436.927l-369.004 164.002c-35.312 15.694-33.24 66.495 3.234 79.261l853.333 298.667c33.742 11.81 66.176-20.625 54.366-54.366l-298.667-853.333c-12.766-36.473-63.566-38.546-79.261-3.234l-164.002 369.004zM908.498 968.754c16.662 16.662 43.677 16.662 60.34 0s16.662-43.677 0-60.34l-469.333-469.333c-16.662-16.662-43.677-16.662-60.34 0s-16.662 43.677 0 60.34l469.333 469.333z" />
<glyph unicode="&#xe909;" glyph-name="rocket" d="M237.397 369.067l-91.947-5.547c-0.299-0.019-0.647-0.029-0.999-0.029-9.426 0-17.067 7.641-17.067 17.067 0 3.136 0.846 6.075 2.322 8.601l-0.044-0.081 51.84 89.856c20.037 34.34 51.976 59.882 90.040 71.187l1.096 0.279 50.475 14.549c-0.043-0.012 0.028 0.016 0.098 0.045l0.115 0.041 56.747 126.421c46.251 130.645 154.965 214.187 297.984 223.744 38.827 2.603 70.955 1.621 91.861-0.427 20.011-1.92 38.528-12.715 50.133-29.141 12.8-18.176 30.549-47.488 48.213-84.523 43.819-92.245 41.045-194.816-2.731-287.445-6.843-14.484-21.33-24.326-38.117-24.326-6.371 0-12.41 1.417-17.82 3.954l0.257-0.108c-14.168 6.884-23.761 21.166-23.761 37.689 0 6.589 1.526 12.823 4.243 18.365l-0.109-0.246c33.28 70.315 35.328 146.347 2.645 214.997-12.694 26.484-25.295 48.625-39.223 69.816l1.377-2.232c-10.226 0.646-22.175 1.015-34.211 1.015-13.469 0-26.831-0.461-40.069-1.369l1.79 0.098c-109.312-7.339-188.928-68.523-224.427-168.661l-140.501-313.173c-6.254-15.912-21.484-26.971-39.296-26.971-5.367 0-10.5 1.004-15.221 2.835l0.287-0.098c-15.557 6.214-26.349 21.155-26.349 38.616 0 1.819 0.117 3.61 0.344 5.367l-0.022-0.208zM826.453 306.261c6.404-16.347 10.115-35.275 10.115-55.070 0-21.923-4.553-42.783-12.764-61.686l0.387 1.001-40.533-95.488c-2.66-6.176-8.694-10.421-15.72-10.421-5.918 0-11.132 3.012-14.193 7.586l-0.039 0.062-70.272 106.027c-0.007 0.012-0.012 0.027-0.012 0.044 0 0.047 0.038 0.085 0.085 0.085 0.004 0 0.008 0 0.012-0.001v0c0.128-0.085 0.299 0 0.341 0.085l93.184 159.317c3.010 5.119 8.491 8.501 14.761 8.501 7.252 0 13.447-4.523 15.919-10.901l0.040-0.116 18.688-49.024zM439.168 188.075l-13.611 108.501c-0.085 0.639-0.133 1.378-0.133 2.129 0 5.987 3.083 11.254 7.748 14.3l0.065 0.040 91.904 59.349c2.616 1.714 5.821 2.733 9.264 2.733 8.675 0 15.838-6.472 16.924-14.85l0.009-0.086 13.653-108.544c0.085-0.639 0.133-1.378 0.133-2.129 0-5.987-3.083-11.254-7.748-14.3l-0.065-0.040-91.989-59.392c-2.616-1.714-5.821-2.733-9.264-2.733-8.675 0-15.838 6.472-16.924 14.85l-0.009 0.086zM649.941 580.864c-34.513 0.289-62.38 28.335-62.38 62.889 0 0.151 0.001 0.301 0.002 0.452v-0.023c0 34.901 27.989 63.275 62.379 63.275s62.379-28.373 62.379-63.275c0-34.901-27.989-63.317-62.379-63.317z" />
<glyph unicode="&#xe90a;" glyph-name="feed" d="M162.134 627.215v192.002c0 21.208-17.192 38.4-38.4 38.4s-38.4-17.192-38.4-38.4v-230.402c0-21.208 17.192-38.4 38.4-38.4h230.402c21.208 0 38.4 17.192 38.4 38.4s-17.192 38.4-38.4 38.4h-192.002zM256.326 409.605c-7.065 19.997-29.002 30.48-48.999 23.415s-30.48-29.002-23.415-48.999c56.977-161.272 213.748-265.419 384.498-255.43s314.308 131.706 352.091 298.522c37.783 166.816-39.319 338.511-189.1 421.099s-336.128 56.156-456.199-64.015l-177.794-167.426c-15.44-14.539-16.17-38.842-1.63-54.282s38.842-16.17 54.282-1.63l178.63 168.237c96.725 96.786 245.803 117.932 365.628 51.861s181.506-203.426 151.28-336.879c-30.226-133.453-145.073-230.826-281.673-238.817s-262.017 75.326-307.598 204.344zM660.843 314.704c15.515 0 27.152 7.758 31.030 23.273 11.636 19.394 3.879 42.667-15.515 50.424l-131.879 65.939v209.455c0 23.273-15.515 38.788-38.788 38.788s-38.788-15.515-38.788-38.788v-232.727c0-15.515 7.758-27.152 23.273-34.909l155.152-77.576c3.879-3.879 7.758-3.879 15.515-3.879z" />
<glyph unicode="&#xe90b;" glyph-name="briefcase" d="M725.333 128c0-23.564-19.103-42.667-42.667-42.667s-42.667 19.103-42.667 42.667v682.667c0 23.564-19.103 42.667-42.667 42.667h-170.667c-23.564 0-42.667-19.103-42.667-42.667v-682.667c0-23.564-19.103-42.667-42.667-42.667s-42.667 19.103-42.667 42.667v682.667c0 70.692 57.308 128 128 128h170.667c70.692 0 128-57.308 128-128v-682.667zM170.667 682.667c-23.564 0-42.667-19.103-42.667-42.667v-426.667c0-23.564 19.103-42.667 42.667-42.667h682.667c23.564 0 42.667 19.103 42.667 42.667v426.667c0 23.564-19.103 42.667-42.667 42.667h-682.667zM170.667 768h682.667c70.692 0 128-57.308 128-128v-426.667c0-70.692-57.308-128-128-128h-682.667c-70.692 0-128 57.308-128 128v426.667c0 70.692 57.308 128 128 128z" />
<glyph unicode="&#xe90c;" glyph-name="grid" d="M170.667 853.333v-213.333h213.333v213.333h-213.333zM128 938.667h298.667c23.564 0 42.667-19.103 42.667-42.667v-298.667c0-23.564-19.103-42.667-42.667-42.667h-298.667c-23.564 0-42.667 19.103-42.667 42.667v298.667c0 23.564 19.103 42.667 42.667 42.667zM640 853.333v-213.333h213.333v213.333h-213.333zM597.333 938.667h298.667c23.564 0 42.667-19.103 42.667-42.667v-298.667c0-23.564-19.103-42.667-42.667-42.667h-298.667c-23.564 0-42.667 19.103-42.667 42.667v298.667c0 23.564 19.103 42.667 42.667 42.667zM640 384v-213.333h213.333v213.333h-213.333zM597.333 469.333h298.667c23.564 0 42.667-19.103 42.667-42.667v-298.667c0-23.564-19.103-42.667-42.667-42.667h-298.667c-23.564 0-42.667 19.103-42.667 42.667v298.667c0 23.564 19.103 42.667 42.667 42.667zM170.667 384v-213.333h213.333v213.333h-213.333zM128 469.333h298.667c23.564 0 42.667-19.103 42.667-42.667v-298.667c0-23.564-19.103-42.667-42.667-42.667h-298.667c-23.564 0-42.667 19.103-42.667 42.667v298.667c0 23.564 19.103 42.667 42.667 42.667z" />
<glyph unicode="&#xe90d;" glyph-name="fast-forward" d="M580.861 179.575c-28.026-21.798-68.861-1.826-68.861 33.679v597.333c0 35.505 40.836 55.477 68.861 33.679l384-298.667c21.962-17.082 21.962-50.276 0-67.358l-384-298.667zM597.333 300.492l271.837 211.429-271.837 211.429v-422.857zM111.528 179.575c-28.026-21.798-68.861-1.826-68.861 33.679v597.333c0 35.505 40.836 55.477 68.861 33.679l384-298.667c21.962-17.082 21.962-50.276 0-67.358l-384-298.667zM128 300.492l271.837 211.429-271.837 211.429v-422.857z" />
<glyph unicode="&#xe90e;" glyph-name="database" d="M170.667 702.818v-190.818c0-34.679 151.73-85.333 341.333-85.333s341.333 50.654 341.333 85.333v190.818c-77.862-40.46-201.808-62.818-341.333-62.818s-263.471 22.358-341.333 62.818zM85.333 810.667c0 106.955 191.135 170.667 426.667 170.667s426.667-63.712 426.667-170.667v-597.333c0-107.171-190.194-170.667-426.667-170.667s-426.667 63.495-426.667 170.667v597.333zM853.333 403.914c-77.703-40.352-201.417-62.581-341.333-62.581s-263.631 22.229-341.333 62.581v-190.581c0-34.679 151.73-85.333 341.333-85.333s341.333 50.654 341.333 85.333v190.581zM512 725.333c188.623 0 341.333 50.903 341.333 85.333s-152.71 85.333-341.333 85.333c-188.623 0-341.333-50.903-341.333-85.333s152.71-85.333 341.333-85.333z" />
<glyph unicode="&#xe90f;" glyph-name="trending-up" d="M878.327 725.333h-152.994c-23.564 0-42.667 19.103-42.667 42.667s19.103 42.667 42.667 42.667h256c23.564 0 42.667-19.103 42.667-42.667v-256c0-23.564-19.103-42.667-42.667-42.667s-42.667 19.103-42.667 42.667v152.994l-332.497-332.497c-16.662-16.662-43.677-16.662-60.34 0l-183.163 183.163-289.83-289.83c-16.662-16.662-43.677-16.662-60.34 0s-16.662 43.677 0 60.34l320 320c16.662 16.662 43.677 16.662 60.34 0l183.163-183.163 302.327 302.327z" />
<glyph unicode="&#xe910;" glyph-name="arrange" d="M725.333 469.333c-23.564 0-42.667 19.103-42.667 42.667s19.103 42.667 42.667 42.667h128c23.564 0 42.667-19.103 42.667-42.667s-19.103-42.667-42.667-42.667h-128zM725.333 640c-23.564 0-42.667 19.103-42.667 42.667s19.103 42.667 42.667 42.667h128c23.564 0 42.667-19.103 42.667-42.667s-19.103-42.667-42.667-42.667h-128zM170.667 640c-23.564 0-42.667 19.103-42.667 42.667s19.103 42.667 42.667 42.667h298.667c23.564 0 42.667-19.103 42.667-42.667s-19.103-42.667-42.667-42.667h-298.667zM170.667 469.333c-23.564 0-42.667 19.103-42.667 42.667s19.103 42.667 42.667 42.667h298.667c23.564 0 42.667-19.103 42.667-42.667s-19.103-42.667-42.667-42.667h-298.667zM725.333 298.667c-23.564 0-42.667 19.103-42.667 42.667s19.103 42.667 42.667 42.667h128c23.564 0 42.667-19.103 42.667-42.667s-19.103-42.667-42.667-42.667h-128zM170.667 298.667c-23.564 0-42.667 19.103-42.667 42.667s19.103 42.667 42.667 42.667h298.667c23.564 0 42.667-19.103 42.667-42.667s-19.103-42.667-42.667-42.667h-298.667zM636.21 174.695l50.539 50.482c15.55 15.533 38.876 15.533 54.427 0s15.55-38.832 0-54.365l-116.629-116.496c-3.888-3.883-7.775-7.766-11.663-7.766-3.888-3.883-11.663-3.883-15.55-3.883s-11.663 0-15.55 3.883c-3.888 3.883-7.775 3.883-11.663 7.766l-116.629 116.496c-15.55 15.533-15.55 38.832 0 54.365s38.876 15.533 54.427 0l50.539-50.482v675.58l-50.539-50.482c-15.55-15.533-38.876-15.533-54.427 0s-15.55 38.832 0 54.365l116.629 116.496c3.888 3.883 7.775 7.766 11.663 7.766 7.775 3.883 19.438 3.883 31.101 0 3.888-3.883 7.775-3.883 11.663-7.766l116.629-116.496c15.55-15.533 15.55-38.832 0-54.365-7.775-7.766-15.55-11.65-27.213-11.65s-19.438 3.883-27.213 11.65l-50.539 50.482v-675.58z" />
<glyph unicode="&#xe911;" glyph-name="folder-top-right" d="M822.303 120.242h-620.606c-65.939 0-116.364 50.424-116.364 116.364v543.030c0 65.939 50.424 116.364 116.364 116.364h193.939c11.636 0 23.273-7.758 31.030-15.515l65.939-100.848h329.697c65.939 0 116.364-50.424 116.364-116.364v-426.667c0-65.939-50.424-116.364-116.364-116.364zM201.697 818.424c-23.273 0-38.788-15.515-38.788-38.788v-543.030c0-23.273 15.515-38.788 38.788-38.788h620.606c23.273 0 38.788 15.515 38.788 38.788v426.667c0 23.273-15.515 38.788-38.788 38.788h-349.091c-11.636 0-23.273 7.758-31.030 15.515l-65.939 100.848h-174.545zM679.392 570.965c-4.352 10.453-12.629 18.731-23.083 23.083-5.205 2.176-10.752 3.285-16.299 3.285h-256c-23.595 0-42.667-19.115-42.667-42.667s19.072-42.667 42.667-42.667h153.003l-183.168-183.168c-16.683-16.64-16.683-43.648 0-60.331 8.32-8.32 19.243-12.501 30.165-12.501s21.845 4.181 30.165 12.501l183.168 183.168v-153.003c0-23.595 19.072-42.667 42.667-42.667s42.667 19.072 42.667 42.667v256c0 5.547-1.109 11.093-3.285 16.299z" />
<glyph unicode="&#xe912;" glyph-name="multiple-valor" d="M829.935 816.912c61.615 0 108.733-47.553 108.733-109.737v-512.105c0-62.184-47.117-109.737-108.733-109.737h-507.419c-61.615 0-108.733 47.553-108.733 109.737v512.105c0 62.184 47.117 109.737 108.733 109.737h507.419zM328.533 746.667c-23.564 0-42.667-19.103-42.667-42.667v-503.467c0-23.564 19.103-42.667 42.667-42.667h494.933c23.564 0 42.667 19.103 42.667 42.667v503.467c0 23.564-19.103 42.667-42.667 42.667h-494.933zM719.665 938.667c19.913 0 36.056-16.143 36.056-36.056s-16.143-36.056-36.056-36.056h-518.609c-23.564 0-42.667-19.103-42.667-42.667v-543.628c0-20.21-16.383-36.593-36.593-36.593-0.043 0-0.087 0-0.13 0-20.138 0.072-36.404 16.455-36.332 36.592l1.892 530.863c0.251 70.514 57.485 127.544 127.999 127.544h504.44zM692.947 490.254l-106.667-119.467c-8.533-8.533-21.333-8.533-34.133 0l-98.133 119.467c-12.8 17.067-4.267 42.667 17.067 42.667h204.8c21.333 4.267 34.133-25.6 17.067-42.667z" />
<glyph unicode="&#xe913;" glyph-name="slider" d="M704 551.111h153.6c21.208 0 38.4-17.511 38.4-39.111s-17.192-39.111-38.4-39.111h-153.6v-78.222c0-21.6-17.192-39.111-38.4-39.111s-38.4 17.511-38.4 39.111v234.667c0 21.6 17.192 39.111 38.4 39.111s38.4-17.511 38.4-39.111v-78.222zM166.4 472.889c-21.208 0-38.4 17.511-38.4 39.111s17.192 39.111 38.4 39.111h345.6c21.208 0 38.4-17.511 38.4-39.111s-17.192-39.111-38.4-39.111h-345.6z" />
<glyph unicode="&#xe914;" glyph-name="sort" d="M853.333 231.006v110.327c0 23.564 19.103 42.667 42.667 42.667s42.667-19.103 42.667-42.667v-213.333c0-23.564-19.103-42.667-42.667-42.667h-213.333c-23.564 0-42.667 19.103-42.667 42.667s19.103 42.667 42.667 42.667h110.327l-183.163 183.163c-16.662 16.662-16.662 43.677 0 60.34s43.677 16.662 60.34 0l183.163-183.163zM792.994 853.333h-110.327c-23.564 0-42.667 19.103-42.667 42.667s19.103 42.667 42.667 42.667h213.333c23.564 0 42.667-19.103 42.667-42.667v-213.333c0-23.564-19.103-42.667-42.667-42.667s-42.667 19.103-42.667 42.667v110.327l-652.497-652.497c-16.662-16.662-43.677-16.662-60.34 0s-16.662 43.677 0 60.34l652.497 652.497zM140.497 823.163c-16.662 16.662-16.662 43.677 0 60.34s43.677 16.662 60.34 0l213.333-213.333c16.662-16.662 16.662-43.677 0-60.34s-43.677-16.662-60.34 0l-213.333 213.333z" />
<glyph unicode="&#xe915;" glyph-name="square-check" d="M799.147 85.333h-574.293c-70.692 0-128 57.308-128 128v597.333c0 70.692 57.308 128 128 128h574.293c70.692 0 128-57.308 128-128v-597.333c0-70.692-57.308-128-128-128zM224.853 853.333c-23.564 0-42.667-19.103-42.667-42.667v-597.333c0-23.564 19.103-42.667 42.667-42.667h574.293c23.564 0 42.667 19.103 42.667 42.667v597.333c0 23.564-19.103 42.667-42.667 42.667h-574.293zM481.83 431.843l225.83 268.497c16.662 16.662 43.677 16.662 60.34 0s16.662-43.677 0-60.34l-256-298.667c-16.662-16.662-43.677-16.662-60.34 0l-170.667 152.994c-16.662 16.662-16.662 43.677 0 60.34s43.677 16.662 60.34 0l140.497-122.824z" />
<glyph unicode="&#xe916;" glyph-name="bar-chart" d="M810.667 170.667c0-23.564-19.103-42.667-42.667-42.667s-42.667 19.103-42.667 42.667v426.667c0 23.564 19.103 42.667 42.667 42.667s42.667-19.103 42.667-42.667v-426.667zM554.667 170.667c0-23.564-19.103-42.667-42.667-42.667s-42.667 19.103-42.667 42.667v682.667c0 23.564 19.103 42.667 42.667 42.667s42.667-19.103 42.667-42.667v-682.667zM298.667 170.667c0-23.564-19.103-42.667-42.667-42.667s-42.667 19.103-42.667 42.667v256c0 23.564 19.103 42.667 42.667 42.667s42.667-19.103 42.667-42.667v-256z" />
<glyph unicode="&#xe917;" glyph-name="bookmark" d="M768 210.909v599.757c0 23.564-19.103 42.667-42.667 42.667h-426.667c-23.564 0-42.667-19.103-42.667-42.667v-599.757l231.201 165.143c14.835 10.596 34.764 10.596 49.599 0l231.201-165.143zM512 288.9l-273.867-195.619c-28.24-20.171-67.466 0.015-67.466 34.719v682.667c0 70.692 57.308 128 128 128h426.667c70.692 0 128-57.308 128-128v-682.667c0-34.704-39.226-54.891-67.466-34.719l-273.867 195.619z" />
<glyph unicode="&#xe918;" glyph-name="clock" d="M512 85.333c-236.606 0-426.667 190.061-426.667 426.667s190.061 426.667 426.667 426.667c236.606 0 426.667-190.061 426.667-426.667s-190.061-426.667-426.667-426.667zM512 861.091c-193.939 0-349.091-155.152-349.091-349.091s155.152-349.091 349.091-349.091c193.939 0 349.091 155.152 349.091 349.091s-155.152 349.091-349.091 349.091zM667.152 395.636c-7.758 0-11.636 0-15.515 3.879l-155.152 77.576c-15.515 7.758-23.273 19.394-23.273 34.909v232.727c0 23.273 15.515 38.788 38.788 38.788s38.788-15.515 38.788-38.788v-209.455l131.879-65.939c19.394-7.758 27.152-31.030 15.515-50.424-3.879-15.515-15.515-23.273-31.030-23.273z" />
<glyph unicode="&#xe919;" glyph-name="list" d="M341.333 725.333c-23.564 0-42.667 19.103-42.667 42.667s19.103 42.667 42.667 42.667h554.667c23.564 0 42.667-19.103 42.667-42.667s-19.103-42.667-42.667-42.667h-554.667zM341.333 469.333c-23.564 0-42.667 19.103-42.667 42.667s19.103 42.667 42.667 42.667h554.667c23.564 0 42.667-19.103 42.667-42.667s-19.103-42.667-42.667-42.667h-554.667zM341.333 213.333c-23.564 0-42.667 19.103-42.667 42.667s19.103 42.667 42.667 42.667h554.667c23.564 0 42.667-19.103 42.667-42.667s-19.103-42.667-42.667-42.667h-554.667zM170.667 213.333c-23.564 0-42.667 19.103-42.667 42.667s19.103 42.667 42.667 42.667c23.564 0 42.667-19.103 42.667-42.667s-19.103-42.667-42.667-42.667zM170.667 469.333c-23.564 0-42.667 19.103-42.667 42.667s19.103 42.667 42.667 42.667c23.564 0 42.667-19.103 42.667-42.667s-19.103-42.667-42.667-42.667zM170.667 725.333c-23.564 0-42.667 19.103-42.667 42.667s19.103 42.667 42.667 42.667c23.564 0 42.667-19.103 42.667-42.667s-19.103-42.667-42.667-42.667z" />
<glyph unicode="&#xe91a;" glyph-name="plugin" d="M826.954 517.49l90.51-90.51c16.662-16.662 16.662-43.677 0-60.34s-43.677-16.662-60.34 0l-1.828 1.828-85.634-85.634c-76.060-76.060-200.216-74.665-277.319 2.438l-58.502 58.502-162.442-162.442c-16.662-16.662-43.677-16.662-60.34 0s-16.662 43.677 0 60.34l162.442 162.442-40.236 40.236c-77.103 77.103-78.498 201.259-2.438 277.319l85.634 85.634-11.885 11.885c-16.662 16.662-16.662 43.677 0 60.34s43.677 16.662 60.34 0l90.51-90.51 120.68 120.68c16.662 16.662 43.677 16.662 60.34 0s16.662-43.677 0-60.34l-120.68-120.68 150.849-150.849 120.68 120.68c16.662 16.662 43.677 16.662 60.34 0s16.662-43.677 0-60.34l-120.68-120.68zM794.955 428.809l-318.155 318.155-85.634-85.634c-42.428-42.428-41.64-112.562 2.438-156.64l159.078-159.078c44.078-44.078 114.212-44.866 156.64-2.438l85.634 85.634z" />
<glyph unicode="&#xe91b;" glyph-name="swim-lane" d="M810.667 81.493h-597.333c-70.692 0-128 57.308-128 128v605.013c0 70.692 57.308 128 128 128h597.333c70.692 0 128-57.308 128-128v-605.013c0-70.692-57.308-128-128-128zM213.333 857.173c-23.564 0-42.667-19.103-42.667-42.667v-605.013c0-23.564 19.103-42.667 42.667-42.667h597.333c23.564 0 42.667 19.103 42.667 42.667v605.013c0 23.564-19.103 42.667-42.667 42.667h-597.333zM167.253 640h689.92v-256h-689.92v256z" />
<glyph unicode="&#xe91c;" glyph-name="align-left" d="M725.333 640c23.564 0 42.667-19.103 42.667-42.667s-19.103-42.667-42.667-42.667h-597.333c-23.564 0-42.667 19.103-42.667 42.667s19.103 42.667 42.667 42.667h597.333zM896 810.667c23.564 0 42.667-19.103 42.667-42.667s-19.103-42.667-42.667-42.667h-768c-23.564 0-42.667 19.103-42.667 42.667s19.103 42.667 42.667 42.667h768zM896 469.333c23.564 0 42.667-19.103 42.667-42.667s-19.103-42.667-42.667-42.667h-768c-23.564 0-42.667 19.103-42.667 42.667s19.103 42.667 42.667 42.667h768zM725.333 298.667c23.564 0 42.667-19.103 42.667-42.667s-19.103-42.667-42.667-42.667h-597.333c-23.564 0-42.667 19.103-42.667 42.667s19.103 42.667 42.667 42.667h597.333z" />
<glyph unicode="&#xe91d;" glyph-name="light" d="M512 277.333c-129.603 0-234.667 105.064-234.667 234.667s105.064 234.667 234.667 234.667c129.603 0 234.667-105.064 234.667-234.667s-105.064-234.667-234.667-234.667zM512 355.556c86.402 0 156.444 70.043 156.444 156.444s-70.043 156.444-156.444 156.444c-86.402 0-156.444-70.043-156.444-156.444s70.043-156.444 156.444-156.444zM472.889 942.222c0 21.6 17.511 39.111 39.111 39.111s39.111-17.511 39.111-39.111v-78.222c0-21.6-17.511-39.111-39.111-39.111s-39.111 17.511-39.111 39.111v78.222zM472.889 160c0 21.6 17.511 39.111 39.111 39.111s39.111-17.511 39.111-39.111v-78.222c0-21.6-17.511-39.111-39.111-39.111s-39.111 17.511-39.111 39.111v78.222zM180.060 788.629c-15.274 15.274-15.274 40.038 0 55.311s40.038 15.274 55.311 0l55.538-55.538c15.274-15.274 15.274-40.038 0-55.311s-40.038-15.274-55.311 0l-55.538 55.538zM733.091 235.598c-15.274 15.274-15.274 40.038 0 55.311s40.038 15.274 55.311 0l55.538-55.538c15.274-15.274 15.274-40.038 0-55.311s-40.038-15.274-55.311 0l-55.538 55.538zM81.778 472.889c-21.6 0-39.111 17.511-39.111 39.111s17.511 39.111 39.111 39.111h78.222c21.6 0 39.111-17.511 39.111-39.111s-17.511-39.111-39.111-39.111h-78.222zM864 472.889c-21.6 0-39.111 17.511-39.111 39.111s17.511 39.111 39.111 39.111h78.222c21.6 0 39.111-17.511 39.111-39.111s-17.511-39.111-39.111-39.111h-78.222zM235.371 180.060c-15.274-15.274-40.038-15.274-55.311 0s-15.274 40.038 0 55.311l55.538 55.538c15.274 15.274 40.038 15.274 55.311 0s15.274-40.038 0-55.311l-55.538-55.538zM788.402 733.091c-15.274-15.274-40.038-15.274-55.311 0s-15.274 40.038 0 55.311l55.538 55.538c15.274 15.274 40.038 15.274 55.311 0s15.274-40.038 0-55.311l-55.538-55.538z" />
<glyph unicode="&#xe91e;" glyph-name="moon" d="M477.111 477.111c-95.633 95.633-123.742 235.751-79.644 357.549-135.731-49.038-229.637-180.923-225.010-331.514 5.54-180.29 150.399-325.15 330.689-330.689 150.59-4.627 282.476 89.279 331.514 225.010-121.797-44.098-261.916-15.989-357.549 79.644zM938.486 474.367c-20.748-224.512-212.598-394.128-437.96-387.203s-406.437 187.999-413.362 413.362c-6.925 225.363 162.691 417.212 387.203 437.96 36.7 3.392 60.145-38.209 38.237-67.847-75.324-101.905-64.759-243.582 24.847-333.188s231.283-100.171 333.188-24.847c29.638 21.907 71.239-1.538 67.847-38.237z" />
<glyph unicode="&#xe91f;" glyph-name="chevron-left" d="M640 213.333c-12.8 0-21.333 4.267-29.867 12.8l-256 256c-17.067 17.067-17.067 42.667 0 59.733l256 256c17.067 17.067 42.667 17.067 59.733 0s17.067-42.667 0-59.733l-226.133-226.133 226.133-226.133c17.067-17.067 17.067-42.667 0-59.733-8.533-8.533-17.067-12.8-29.867-12.8z" />
<glyph unicode="&#xe920;" glyph-name="minus" d="M213.333 469.333c-23.564 0-42.667 19.103-42.667 42.667s19.103 42.667 42.667 42.667h597.333c23.564 0 42.667-19.103 42.667-42.667s-19.103-42.667-42.667-42.667h-597.333z" />
<glyph unicode="&#xe921;" glyph-name="hearth-active" d="M938.667 649.191c0-65.46-25.531-128.236-70.967-174.506l-329.364-335.566c-14.55-14.824-38.141-14.824-52.691 0l-329.364 335.566c-94.596 96.377-94.596 252.635 0 349.012s247.966 96.377 342.562 0l13.148-13.396 13.142 13.39c45.421 46.298 107.037 72.309 171.287 72.309 64.247 0 125.861-26.009 171.281-72.303 45.438-46.275 70.967-109.050 70.967-174.506zM538.336 783.459h-52.691l26.346 26.842 26.346-26.842z" />
<glyph unicode="&#xe922;" glyph-name="folder" d="M822.303 120.242h-620.606c-65.939 0-116.364 50.424-116.364 116.364v543.030c0 65.939 50.424 116.364 116.364 116.364h193.939c11.636 0 23.273-7.758 31.030-15.515l65.939-100.848h329.697c65.939 0 116.364-50.424 116.364-116.364v-426.667c0-65.939-50.424-116.364-116.364-116.364zM201.697 818.424c-23.273 0-38.788-15.515-38.788-38.788v-543.030c0-23.273 15.515-38.788 38.788-38.788h620.606c23.273 0 38.788 15.515 38.788 38.788v426.667c0 23.273-15.515 38.788-38.788 38.788h-349.091c-11.636 0-23.273 7.758-31.030 15.515l-65.939 100.848h-174.545z" />
<glyph unicode="&#xe923;" glyph-name="menu" d="M128 469.333c-23.564 0-42.667 19.103-42.667 42.667s19.103 42.667 42.667 42.667h768c23.564 0 42.667-19.103 42.667-42.667s-19.103-42.667-42.667-42.667h-768zM128 725.333c-23.564 0-42.667 19.103-42.667 42.667s19.103 42.667 42.667 42.667h768c23.564 0 42.667-19.103 42.667-42.667s-19.103-42.667-42.667-42.667h-768zM128 213.333c-23.564 0-42.667 19.103-42.667 42.667s19.103 42.667 42.667 42.667h768c23.564 0 42.667-19.103 42.667-42.667s-19.103-42.667-42.667-42.667h-768z" />
<glyph unicode="&#xe924;" glyph-name="cloud-download" d="M551.182 259.028l89.627 87.995c15.265 14.987 40.015 14.987 55.281 0s15.265-39.286 0-54.273l-156.357-153.509c-15.265-14.987-40.015-14.987-55.281 0l-156.357 153.509c-15.265 14.987-15.265 39.286 0 54.273s40.015 14.987 55.281 0l89.627-87.995v252.744c0 21.195 17.501 38.377 39.089 38.377s39.089-17.182 39.089-38.377v-252.744zM746.598 665.28c102.309 0.079 192.864-64.962 223.765-160.715s-4.984-200.125-88.673-257.903c-17.659-12.192-42.042-8.020-54.46 9.317s-8.169 41.276 9.49 53.468c55.792 38.519 79.716 108.099 59.115 171.935s-80.971 107.196-149.207 107.144h-49.252c-17.847 0-33.427 11.867-37.863 28.839-28.173 107.794-121.124 187.374-233.73 200.107s-221.551-44.016-273.946-142.699c-52.395-98.683-37.392-218.866 37.726-302.206 14.307-15.873 12.799-40.127-3.368-54.173s-40.871-12.566-55.178 3.307c-96.581 107.151-115.87 261.672-48.505 388.551s207.437 199.842 352.216 183.47c134.542-15.214 247.26-104.648 291.597-228.442h20.272z" />
<glyph unicode="&#xe925;" glyph-name="done" d="M384 316.34l439.163 439.163c16.662 16.662 43.677 16.662 60.34 0s16.662-43.677 0-60.34l-469.333-469.333c-16.662-16.662-43.677-16.662-60.34 0l-213.333 213.333c-16.662 16.662-16.662 43.677 0 60.34s43.677 16.662 60.34 0l183.163-183.163z" />
<glyph unicode="&#xe926;" glyph-name="tablet" d="M768 128c23.564 0 42.667 19.103 42.667 42.667v682.667c0 23.564-19.103 42.667-42.667 42.667h-512c-23.564 0-42.667-19.103-42.667-42.667v-682.667c0-23.564 19.103-42.667 42.667-42.667h512zM768 42.667h-512c-70.692 0-128 57.308-128 128v682.667c0 70.692 57.308 128 128 128h512c70.692 0 128-57.308 128-128v-682.667c0-70.692-57.308-128-128-128zM512 213.333c23.564 0 42.667 19.103 42.667 42.667s-19.103 42.667-42.667 42.667c-23.564 0-42.667-19.103-42.667-42.667s19.103-42.667 42.667-42.667z" />
<glyph unicode="&#xe927;" glyph-name="view-slash" d="M437.997 777.956c-19.474-3.911-38.949 7.822-46.739 27.378-3.895 23.467 7.79 43.022 31.159 46.933 27.264 7.822 58.423 11.733 89.582 11.733 292.116 0 455.701-320.711 463.491-328.533 7.79-11.733 7.79-23.467 0-35.2-27.264-46.933-54.528-93.867-89.582-132.978-7.79-11.733-19.474-15.644-31.159-15.644-7.79 0-15.58 0-23.369 7.822-15.58 11.733-19.474 39.111-3.895 54.756 27.264 27.378 50.633 62.578 70.108 97.778-38.949 62.578-175.27 273.778-385.593 273.778-23.369 0-50.633-3.911-74.003-7.822zM967.701 109.156c15.58-15.644 15.58-39.111 0-54.756-7.79-7.822-19.474-11.733-27.264-11.733s-19.474 3.911-27.264 11.733l-175.27 176c-66.213-46.933-144.111-70.4-225.903-70.4-292.116 0-455.701 320.711-463.491 336.356-7.79 11.733-7.79 23.467 0 35.2 46.739 82.133 105.162 152.533 175.27 215.111l-167.48 168.178c-15.58 15.644-15.58 39.111 0 54.756s38.949 15.644 54.528 0l856.874-860.444zM434.102 535.467c-7.79-31.289 0-62.578 19.474-82.133 23.369-19.556 50.633-23.467 77.898-15.644l-97.372 97.778zM512 238.222c58.423 0 116.846 15.644 167.48 46.933l-89.582 89.956c-23.369-15.644-54.528-23.467-81.793-23.467-38.949 0-74.003 15.644-105.162 43.022-58.423 50.844-66.213 132.978-27.264 195.556l-97.372 101.689c-62.318-50.844-112.952-109.511-151.9-179.911 38.949-62.578 175.27-273.778 385.593-273.778z" />
<glyph unicode="&#xe928;" glyph-name="upload" d="M469.333 792.994l-140.497-140.497c-16.662-16.662-43.677-16.662-60.34 0s-16.662 43.677 0 60.34l213.333 213.333c16.662 16.662 43.677 16.662 60.34 0l213.333-213.333c16.662-16.662 16.662-43.677 0-60.34s-43.677-16.662-60.34 0l-140.497 140.497v-408.994c0-23.564-19.103-42.667-42.667-42.667s-42.667 19.103-42.667 42.667v408.994zM853.333 384c0 23.564 19.103 42.667 42.667 42.667s42.667-19.103 42.667-42.667v-170.667c0-70.692-57.308-128-128-128h-597.333c-70.692 0-128 57.308-128 128v170.667c0 23.564 19.103 42.667 42.667 42.667s42.667-19.103 42.667-42.667v-170.667c0-23.564 19.103-42.667 42.667-42.667h597.333c23.564 0 42.667 19.103 42.667 42.667v170.667z" />
<glyph unicode="&#xe929;" glyph-name="cloud" d="M746.729 625.75c129.568 0 234.604-101.874 234.604-227.541s-105.036-227.541-234.604-227.541h-351.877c-182.909-0.132-335.428 135.663-350.907 312.429s111.245 335.563 291.558 365.35c170.147 28.107 334.475-67.502 390.884-222.696h20.342zM746.729 549.903h-49.267c-17.83 0-33.402 11.699-37.859 28.443-35.566 133.599-170.726 218.497-310.97 195.33s-238.806-146.676-226.767-284.161c12.039-137.485 130.665-243.104 272.957-243.001h351.907c86.379 0 156.403 67.916 156.403 151.694s-70.024 151.694-156.403 151.694z" />
<glyph unicode="&#xe92a;" glyph-name="color" d="M646.896 256c9.361-19.685 14.437-41.418 14.437-64 0-82.542-66.792-149.333-149.333-149.333-259.182 0-469.333 210.152-469.333 469.333s210.152 469.333 469.333 469.333c257.123 0 469.333-188.595 469.333-426.667 0-164.888-133.778-298.667-298.667-298.667h-35.77zM512 896c-212.053 0-384-171.947-384-384s171.947-384 384-384c35.413 0 64 28.587 64 64 0 16.64-6.4 31.573-16.64 43.093-9.813 11.093-16.213 26.027-16.213 42.24 0 35.413 28.587 64 64 64h75.52c117.76 0 213.333 95.573 213.333 213.333 0 188.587-171.947 341.333-384 341.333zM277.333 512c-35.413 0-64 28.587-64 64s28.587 64 64 64c35.413 0 64-28.587 64-64s-28.587-64-64-64zM405.333 682.667c-35.413 0-64 28.587-64 64s28.587 64 64 64c35.413 0 64-28.587 64-64s-28.587-64-64-64zM618.667 682.667c-35.413 0-64 28.587-64 64s28.587 64 64 64c35.413 0 64-28.587 64-64s-28.587-64-64-64zM746.667 512c-35.413 0-64 28.587-64 64s28.587 64 64 64c35.413 0 64-28.587 64-64s-28.587-64-64-64z" />
<glyph unicode="&#xe92b;" glyph-name="align-center" d="M768 640c23.564 0 42.667-19.103 42.667-42.667s-19.103-42.667-42.667-42.667h-512c-23.564 0-42.667 19.103-42.667 42.667s19.103 42.667 42.667 42.667h512zM896 810.667c23.564 0 42.667-19.103 42.667-42.667s-19.103-42.667-42.667-42.667h-768c-23.564 0-42.667 19.103-42.667 42.667s19.103 42.667 42.667 42.667h768zM896 469.333c23.564 0 42.667-19.103 42.667-42.667s-19.103-42.667-42.667-42.667h-768c-23.564 0-42.667 19.103-42.667 42.667s19.103 42.667 42.667 42.667h768zM768 298.667c23.564 0 42.667-19.103 42.667-42.667s-19.103-42.667-42.667-42.667h-512c-23.564 0-42.667 19.103-42.667 42.667s19.103 42.667 42.667 42.667h512z" />
<glyph unicode="&#xe92c;" glyph-name="arrow-left" d="M810.667 554.667h-494.933l226.133 226.133c17.067 17.067 17.067 42.667 0 59.733s-42.667 17.067-59.733 0l-298.667-298.667c-4.267-4.267-8.533-8.533-8.533-12.8-4.267-8.533-4.267-21.333 0-34.133 4.267-4.267 4.267-8.533 8.533-12.8l298.667-298.667c8.533-8.533 21.333-12.8 29.867-12.8s21.333 4.267 29.867 12.8c17.067 17.067 17.067 42.667 0 59.733l-226.133 226.133h494.933c25.6 0 42.667 17.067 42.667 42.667s-17.067 42.667-42.667 42.667z" />
<glyph unicode="&#xe92d;" glyph-name="calendar" d="M409.6 826.182h204.8v34.909c0 19.28 15.282 34.909 34.133 34.909s34.133-15.629 34.133-34.909v-34.909h68.267c56.554 0 102.4-46.888 102.4-104.727v-488.727c0-57.839-45.846-104.727-102.4-104.727h-477.867c-56.554 0-102.4 46.888-102.4 104.727v488.727c0 57.839 45.846 104.727 102.4 104.727h68.267v34.909c0 19.28 15.282 34.909 34.133 34.909s34.133-15.629 34.133-34.909v-34.909zM409.6 756.364v-34.909c0-19.28-15.282-34.909-34.133-34.909s-34.133 15.629-34.133 34.909v34.909h-68.267c-18.851 0-34.133-15.629-34.133-34.909v-488.727c0-19.28 15.282-34.909 34.133-34.909h477.867c18.851 0 34.133 15.629 34.133 34.909v488.727c0 19.28-15.282 34.909-34.133 34.909h-68.267v-34.909c0-19.28-15.282-34.909-34.133-34.909s-34.133 15.629-34.133 34.909v34.909h-204.8zM204.8 546.909c-18.851 0-34.133 15.629-34.133 34.909s15.282 34.909 34.133 34.909h614.4c18.851 0 34.133-15.629 34.133-34.909s-15.282-34.909-34.133-34.909h-614.4z" />
<glyph unicode="&#xe92e;" glyph-name="filter" d="M94.734 831.092c-21.679 25.635-3.457 64.908 30.115 64.908h788.808c33.573 0 51.794-39.273 30.115-64.908l-306.198-362.079v-322.38c0-29.319-30.855-48.389-57.079-35.277l-157.762 78.881c-13.362 6.681-21.802 20.338-21.802 35.277v243.499l-306.198 362.079zM209.856 817.119l260.633-308.198c6.021-7.12 9.325-16.143 9.325-25.468v-233.565l78.881-39.44v273.005c0 9.325 3.304 18.348 9.325 25.468l260.633 308.198h-618.796z" />
<glyph unicode="&#xe92f;" glyph-name="twitter" d="M919.615 888.525c29.526 20.613 69.084-6.039 60.535-40.785-13.395-54.439-40.245-104.616-78.004-146.084 0.582-6.269 0.884-12.579 0.905-18.926 0-459.006-447.596-694.8-840.191-478.928-36.003 19.797-20.608 74.127 20.545 72.507 65.954-2.597 131.244 10.382 190.613 37.448-86.192 52.583-141.383 122.198-168.458 204.551-27.955 85.030-23.875 174.385-0.553 259.247 7.055 25.67 14.225 45.013 19.319 56.357 12.344 27.49 50.268 31.143 67.736 6.524 65.367-92.125 168.722-149.633 280.826-157.959-0.601 88.421 54.315 168.003 137.875 199.569 75.566 28.546 160.099 12.362 219.273-40.053 31.757 11.554 61.878 27.19 89.581 46.53zM830.641 760.62c-14.728-4.389-30.688 0.174-40.782 11.661-37.473 42.645-97.86 57.6-151.209 37.447s-88.312-71.128-87.543-128.159v-38.704c0-20.985-16.896-38.147-38.091-38.691-127.51-3.272-249.331 46.407-337.156 134.937-15.448-65.994-16.577-134.049 4.070-196.851 26.475-80.528 87.081-145.901 191.535-191.849 28.029-12.33 31.459-50.341 6.080-67.391-43.762-29.401-91.713-51.467-141.936-65.656 300.292-78.191 589.231 119.113 589.231 465.237-0.028 8.385-0.843 16.749-2.433 24.985-2.451 12.689 1.657 25.753 10.951 34.824 8.711 8.503 16.779 17.565 24.161 27.112-8.857-3.234-17.821-6.204-26.879-8.903z" />
<glyph unicode="&#xe930;" glyph-name="undo" d="M162.134 627.549h192c21.208 0 38.4-17.192 38.4-38.4s-17.192-38.4-38.4-38.4h-230.4c-21.208 0-38.4 17.192-38.4 38.4v230.4c0 21.208 17.192 38.4 38.4 38.4s38.4-17.192 38.4-38.4v-192zM183.9 384.388c-7.047 20.003 3.455 41.931 23.458 48.978s41.931-3.455 48.978-23.458c45.466-129.049 170.798-212.474 307.396-204.612s251.531 105.115 281.891 238.528c30.36 133.413-31.172 270.823-150.917 337.019s-268.835 45.22-366.5-52.255l-178.176-167.424c-15.455-14.523-39.757-13.767-54.28 1.689s-13.767 39.757 1.689 54.28l177.342 166.616c121.038 120.834 307.401 147.054 457.082 64.309s226.596-254.508 188.646-421.274c-37.95-166.766-181.617-288.333-352.364-298.16s-327.412 94.454-384.245 255.765z" />
<glyph unicode="&#xe931;" glyph-name="view" d="M512 128c-293.946 0-458.555 330.43-466.394 346.548-3.919 12.089-3.919 24.178 0 36.267 7.839 12.089 172.448 342.519 466.394 342.519s458.555-330.43 466.394-346.548c3.919-12.089 3.919-24.178 0-36.267-7.839-12.089-172.448-342.519-466.394-342.519zM123.992 490.667c35.273-64.474 176.367-282.074 388.008-282.074s348.816 217.6 388.008 282.074c-35.273 64.474-176.367 282.074-388.008 282.074s-348.816-217.6-388.008-282.074zM512 329.481c-86.224 0-156.771 72.533-156.771 161.185s70.547 161.185 156.771 161.185c86.224 0 156.771-72.533 156.771-161.185s-70.547-161.185-156.771-161.185zM512 571.259c-43.112 0-78.386-36.267-78.386-80.593s35.273-80.593 78.386-80.593c43.112 0 78.386 36.267 78.386 80.593s-35.273 80.593-78.386 80.593z" />
<glyph unicode="&#xe932;" glyph-name="arrow-up" d="M469.867 213.867v494.933l-226.133-226.133c-17.067-17.067-42.667-17.067-59.733 0s-17.067 42.667 0 59.733l298.667 298.667c4.267 4.267 8.533 8.533 12.8 8.533 8.533 4.267 21.333 4.267 34.133 0 4.267-4.267 8.533-4.267 12.8-8.533l298.667-298.667c8.533-8.533 12.8-21.333 12.8-29.867s-4.267-21.333-12.8-29.867c-17.067-17.067-42.667-17.067-59.733 0l-226.133 226.133v-494.933c0-25.6-17.067-42.667-42.667-42.667s-42.667 17.067-42.667 42.667z" />
<glyph unicode="&#xe933;" glyph-name="square-plus" d="M799.147 85.333h-574.293c-70.692 0-128 57.308-128 128v597.333c0 70.692 57.308 128 128 128h574.293c70.692 0 128-57.308 128-128v-597.333c0-70.692-57.308-128-128-128zM224.853 853.333c-23.564 0-42.667-19.103-42.667-42.667v-597.333c0-23.564 19.103-42.667 42.667-42.667h574.293c23.564 0 42.667 19.103 42.667 42.667v597.333c0 23.564-19.103 42.667-42.667 42.667h-574.293zM512 298.667c-23.564 0-42.667 19.103-42.667 42.667v128h-122.88c-23.564 0-42.667 19.103-42.667 42.667s19.103 42.667 42.667 42.667h122.88v128c0 23.564 19.103 42.667 42.667 42.667s42.667-19.103 42.667-42.667v-128h122.88c23.564 0 42.667-19.103 42.667-42.667s-19.103-42.667-42.667-42.667h-122.88v-128c0-23.564-19.103-42.667-42.667-42.667z" />
<glyph unicode="&#xe934;" glyph-name="mobile" d="M298.667 896c-23.564 0-42.667-19.103-42.667-42.667v-682.667c0-23.564 19.103-42.667 42.667-42.667h426.667c23.564 0 42.667 19.103 42.667 42.667v682.667c0 23.564-19.103 42.667-42.667 42.667h-426.667zM298.667 981.333h426.667c70.692 0 128-57.308 128-128v-682.667c0-70.692-57.308-128-128-128h-426.667c-70.692 0-128 57.308-128 128v682.667c0 70.692 57.308 128 128 128zM512 213.333c23.564 0 42.667 19.103 42.667 42.667s-19.103 42.667-42.667 42.667c-23.564 0-42.667-19.103-42.667-42.667s19.103-42.667 42.667-42.667z" />
<glyph unicode="&#xe935;" glyph-name="circle-dropdown" d="M512 85.333c-234.667 0-426.667 192-426.667 426.667s192 426.667 426.667 426.667c234.667 0 426.667-192 426.667-426.667s-192-426.667-426.667-426.667zM512 861.867c-192 0-349.867-153.6-349.867-349.867s153.6-349.867 349.867-349.867c196.267 0 349.867 153.6 349.867 349.867s-157.867 349.867-349.867 349.867zM631.467 512l-106.667-119.467c-8.533-8.533-21.333-8.533-34.133 0l-98.133 119.467c-12.8 17.067-4.267 42.667 17.067 42.667h204.8c21.333 4.267 34.133-25.6 17.067-42.667z" />
<glyph unicode="&#xe936;" glyph-name="exit" d="M85.333 308.842v503.278c0 46.553 38.721 83.88 86.046 83.88h473.254c47.522 0 86.046-37.554 86.046-83.88v-82.796c0-23.761-19.262-43.023-43.023-43.023s-43.023 19.262-43.023 43.023v61.463c0 11.782-9.551 21.333-21.333 21.333h-394.556l225.439-65.929c36.379-10.639 61.381-44 61.381-81.903v-355.446h107.736c11.782 0 21.333 9.551 21.333 21.333v61.463c0 23.761 19.262 43.023 43.023 43.023s43.023-19.262 43.023-43.023v-82.796c0-46.325-38.524-83.88-86.046-83.88h-129.069v-11.957c0-47.128-38.205-85.333-85.333-85.333-8.106 0-16.172 1.155-23.952 3.431l-259.564 75.909c-36.379 10.639-61.381 44-61.381 81.903v19.928zM200.019 744.777c-2.341 0.853-4.814 1.29-7.306 1.29-11.782 0-21.333-9.551-21.333-21.333v-425.037c0-8.965 5.605-16.973 14.028-20.043l215.472-78.538c2.341-0.853 4.814-1.29 7.306-1.29 11.782 0 21.333 9.551 21.333 21.333v425.037c0 8.965-5.605 16.973-14.028 20.043l-215.472 78.538zM933.259 572.702c0.104-0.101 0.206-0.204 0.308-0.308 6.579-6.749 6.442-17.555-0.308-24.134l-130.576-127.288c-3.187-3.107-7.462-4.846-11.913-4.846-9.426 0-17.067 7.641-17.067 17.067v76.815c0 4.713-3.821 8.533-8.533 8.533h-164.642c-23.163 0-41.94 18.777-41.94 41.94s18.777 41.94 41.94 41.94h164.642c4.713 0 8.533 3.821 8.533 8.533v76.815c0 4.451 1.739 8.726 4.846 11.913 6.579 6.749 17.385 6.887 24.134 0.308l130.576-127.288z" />
<glyph unicode="&#xe937;" glyph-name="h1" d="M810.667 85.333h-597.333c-72.533 0-128 55.467-128 128v597.333c0 72.533 55.467 128 128 128h597.333c72.533 0 128-55.467 128-128v-597.333c0-72.533-55.467-128-128-128zM213.333 853.333c-25.6 0-42.667-17.067-42.667-42.667v-597.333c0-25.6 17.067-42.667 42.667-42.667h597.333c25.6 0 42.667 17.067 42.667 42.667v597.333c0 25.6-17.067 42.667-42.667 42.667h-597.333zM490.667 328.533c-21.333 0-38.4 17.067-38.4 38.4v119.467h-119.467v-119.467c0-21.333-17.067-38.4-38.4-38.4s-38.4 17.067-38.4 38.4v290.133c0 21.333 17.067 38.4 38.4 38.4s38.4-17.067 38.4-38.4v-106.667h119.467v106.667c0 21.333 17.067 38.4 38.4 38.4s38.4-17.067 38.4-38.4v-290.133c0-21.333-17.067-38.4-38.4-38.4zM738.133 384h-21.333v294.4c0 12.8-8.533 17.067-21.333 17.067h-85.333c-21.333 0-34.133-17.067-34.133-29.867 0-17.067 17.067-29.867 34.133-29.867h29.867v-243.2h-29.867c-17.067 0-34.133-12.8-34.133-29.867s12.8-29.867 34.133-29.867h123.733c17.067 0 34.133 12.8 34.133 29.867 4.267 12.8-8.533 21.333-29.867 21.333z" />
<glyph unicode="&#xe938;" glyph-name="language" d="M512 42.667c-259.206 0-469.333 210.128-469.333 469.333s210.128 469.333 469.333 469.333c259.206 0 469.333-210.128 469.333-469.333s-210.128-469.333-469.333-469.333zM512 128c212.077 0 384 171.923 384 384s-171.923 384-384 384c-212.077 0-384-171.923-384-384s171.923-384 384-384zM512 128c80.307 0 170.667 165.659 170.667 384s-90.359 384-170.667 384c-80.307 0-170.667-165.659-170.667-384s90.359-384 170.667-384zM512 42.667c-141.385 0-256 210.128-256 469.333s114.615 469.333 256 469.333c141.385 0 256-210.128 256-469.333s-114.615-469.333-256-469.333zM469.333 887.467c0 51.841 19.103 93.867 42.667 93.867s42.667-42.026 42.667-93.867v-750.933c0-51.841-19.103-93.867-42.667-93.867s-42.667 42.026-42.667 93.867v750.933zM136.533 469.333c-51.841 0-93.867 19.103-93.867 42.667s42.026 42.667 93.867 42.667h750.933c51.841 0 93.867-19.103 93.867-42.667s-42.026-42.667-93.867-42.667h-750.933z" />
<glyph unicode="&#xe939;" glyph-name="edit-square" d="M768 42.667h-597.333c-72.533 0-128 55.467-128 128v597.333c0 72.533 55.467 128 128 128h226.133c25.6 0 42.667-17.067 42.667-42.667s-17.067-42.667-42.667-42.667h-226.133c-25.6 0-42.667-17.067-42.667-42.667v-597.333c0-25.6 17.067-42.667 42.667-42.667h597.333c25.6 0 42.667 17.067 42.667 42.667v226.133c0 25.6 17.067 42.667 42.667 42.667s42.667-17.067 42.667-42.667v-226.133c0-72.533-55.467-128-128-128zM512 298.667h-170.667c-25.6 0-42.667 17.067-42.667 42.667v170.667c0 12.8 4.267 21.333 12.8 29.867l426.667 426.667c17.067 17.067 42.667 17.067 59.733 0l170.667-170.667c17.067-17.067 17.067-42.667 0-59.733l-426.667-426.667c-8.533-8.533-17.067-12.8-29.867-12.8zM384 384h110.933l384 384-110.933 110.933-384-384v-110.933z" />
<glyph unicode="&#xe93a;" glyph-name="unlock" d="M810.667 597.333h-469.333v128c0 46.933 17.067 89.6 51.2 119.467 29.867 34.133 72.533 51.2 119.467 51.2 0 0 0 0 0 0 81.067 0 149.333-55.467 166.4-136.533 4.267-21.333 29.867-38.4 51.2-34.133s38.4 25.6 34.133 51.2c-25.6 119.467-132.267 204.8-251.733 204.8 0 0 0 0 0 0-68.267 0-132.267-25.6-179.2-76.8-51.2-46.933-76.8-110.933-76.8-179.2v-128h-42.667c-72.533 0-128-55.467-128-128v-298.667c0-72.533 55.467-128 128-128h597.333c72.533 0 128 55.467 128 128v298.667c0 72.533-55.467 128-128 128zM853.333 170.667c0-25.6-17.067-42.667-42.667-42.667h-597.333c-25.6 0-42.667 17.067-42.667 42.667v298.667c0 25.6 17.067 42.667 42.667 42.667h597.333c25.6 0 42.667-17.067 42.667-42.667v-298.667z" />
<glyph unicode="&#xe93b;" glyph-name="youtube" d="M961.907 729.109l0.549-2.553c12.831-71.134 19.060-143.302 18.606-215.197 0.256-71.2-5.972-142.276-19.155-214.903-12.854-51.356-52.196-91.914-103.679-106.476-29.691-7.941-87.675-12.814-169.186-15.929-38.799-1.482-80.29-2.433-121.771-2.962-14.509-0.185-27.985-0.304-40.086-0.37-7.279-0.040-12.497-0.053-15.31-0.053s-8.031 0.013-15.31 0.053c-12.1 0.066-25.576 0.185-40.086 0.37-41.48 0.528-82.972 1.479-121.771 2.962-81.511 3.114-139.495 7.988-169.403 15.987-49.865 13.644-88.977 52.352-104.011 105.842-12.831 71.134-19.060 143.302-18.606 215.145-0.354 71.741 5.874 143.363 19.155 216.52 12.854 51.356 52.196 91.914 103.679 106.476 29.691 7.941 87.675 12.814 169.186 15.929 38.799 1.482 80.29 2.433 121.771 2.962 14.509 0.185 27.985 0.304 40.086 0.37 7.279 0.040 12.497 0.053 15.31 0.053 2.808 0 8.019-0.012 15.292-0.048 12.092-0.060 25.56-0.169 40.061-0.337 41.454-0.482 82.918-1.35 121.684-2.702 81.248-2.834 139.104-7.274 169.858-14.81 50.941-14.412 90.282-54.97 103.137-106.326zM838.852 759.83c-22.082 5.392-77.454 9.642-152.665 12.265-38.091 1.329-78.974 2.184-119.867 2.66-14.321 0.167-27.616 0.274-39.541 0.333-7.138 0.036-12.22 0.047-14.902 0.047-2.676 0-7.752-0.013-14.884-0.052-11.917-0.065-25.205-0.182-39.517-0.364-40.867-0.52-81.722-1.457-119.781-2.911-74.948-2.863-130.192-7.507-151.425-13.181-23.988-6.787-42.514-25.886-48.018-47.515-11.883-65.896-17.696-132.743-17.366-200.14-0.424-67.462 5.39-134.819 16.491-197.443 6.668-23.414 25.085-41.641 48.35-48.008 21.776-5.824 77.019-10.467 151.968-13.331 38.059-1.454 78.914-2.391 119.781-2.911 14.312-0.182 27.599-0.299 39.517-0.364 7.132-0.039 12.208-0.052 14.884-0.052s7.752 0.013 14.884 0.052c11.917 0.065 25.205 0.182 39.517 0.364 40.867 0.52 81.722 1.457 119.781 2.911 74.948 2.863 130.192 7.507 151.425 13.181 23.988 6.787 42.514 25.886 48.017 47.513 11.792 65.4 17.604 131.737 17.366 198.577 0.421 66.982-5.307 133.861-17.111 199.794-6.342 23.645-24.64 42.248-46.903 48.573zM443.232 349.377c-26.065-14.823-58.427 4.002-58.427 33.987v255.707c0 29.985 32.362 48.81 58.427 33.987l224.819-127.853c26.361-14.991 26.361-52.983 0-67.975l-224.819-127.853zM569.63 511.218l-106.628 60.639v-121.277l106.628 60.639z" />
<glyph unicode="&#xe93c;" glyph-name="circle-initial" d="M512 85.333c-235.641 0-426.667 191.025-426.667 426.667s191.025 426.667 426.667 426.667c235.641 0 426.667-191.025 426.667-426.667s-191.025-426.667-426.667-426.667zM512 853.333c-188.513 0-341.333-152.82-341.333-341.333s152.82-341.333 341.333-341.333c188.513 0 341.333 152.82 341.333 341.333 0 90.527-35.962 177.347-99.974 241.359s-150.832 99.974-241.359 99.974z" />
<glyph unicode="&#xe93d;" glyph-name="edit" d="M341.333 85.333h-213.333c-25.6 0-42.667 17.067-42.667 42.667v213.333c0 12.8 4.267 21.333 12.8 29.867l554.667 554.667c17.067 17.067 42.667 17.067 59.733 0l213.333-213.333c17.067-17.067 17.067-42.667 0-59.733l-554.667-554.667c-8.533-8.533-17.067-12.8-29.867-12.8zM170.667 170.667h153.6l512 512-153.6 153.6-512-512v-153.6z" />
<glyph unicode="&#xe93e;" glyph-name="mortarboard" d="M725.333 597.333c0 23.564 19.103 42.667 42.667 42.667s42.667-19.103 42.667-42.667v-301.579c0-70.9-121.359-125.087-298.667-125.087s-298.667 54.187-298.667 125.087v301.579c0 23.564 19.103 42.667 42.667 42.667s42.667-19.103 42.667-42.667v-293.083c6.086-5.924 16.412-12.614 30.701-18.995 40.604-18.13 101.714-29.256 182.632-29.256s142.028 11.126 182.632 29.256c14.289 6.38 24.615 13.071 30.613 18.911 0.021 0.020 0.050 97.743 0.088 293.167zM935.835 659.257c0.386-2.306 0.586-4.674 0.586-7.089v-213.333c0-23.564-19.103-42.667-42.667-42.667s-42.667 19.103-42.667 42.667v165.753l-322.705-161.24c-12.082-6.037-26.308-5.997-38.355 0.108l-381.312 193.209c-31.719 16.072-31.015 61.615 1.186 76.698l381.312 178.609c11.395 5.338 24.566 5.373 35.99 0.096l386.688-178.609c22.029-10.175 29.44-34.568 21.944-54.201zM298.667 304.25v-8.496c0 7.52-0.873 9.297 0 8.496zM225.371 673.218l284.075-143.94 288.072 143.936-288.081 133.063-284.067-133.059z" />
<glyph unicode="&#xe93f;" glyph-name="video-rec" d="M961.778 726.667c-11.733 8-27.378 4-39.111-4l-215.111-156v124c0 68-50.844 120-117.333 120h-430.222c-66.489 0-117.333-52-117.333-120v-400c0-68 50.844-120 117.333-120h430.222c66.489 0 117.333 52 117.333 120v124l211.2-156c7.822-4 15.644-8 23.467-8s11.733 0 19.556 4c11.733 8 19.556 20 19.556 36v400c0 16-7.822 28-19.556 36zM629.333 290.667c0-24-15.644-40-39.111-40h-430.222c-23.467 0-39.111 16-39.111 40v400c0 24 15.644 40 39.111 40h430.222c23.467 0 39.111-16 39.111-40v-400zM903.111 366.667l-168.178 124 168.178 124v-248z" />
<glyph unicode="&#xe940;" glyph-name="star" d="M960 635.733c4.267-12.8 0-29.867-8.533-38.4l-187.733-183.467 42.667-260.267c4.267-17.067-4.267-34.133-17.067-42.667-8.533-4.267-17.067-8.533-25.6-8.533s-12.8 0-21.333 0l-230.4 123.733-230.4-123.733c-12.8-8.533-29.867-4.267-42.667 4.267s-21.333 25.6-17.067 42.667l42.667 260.267-187.733 183.467c-12.8 8.533-17.067 25.6-12.8 42.667 8.533 17.067 21.333 25.6 38.4 25.6l256 42.667 115.2 234.667c12.8 29.867 59.733 29.867 72.533 0l119.467-234.667 260.267-38.4c17.067-4.267 29.867-12.8 34.133-29.867zM686.933 456.533l145.067 140.8-200.533 29.867c-17.067 0-29.867 8.533-34.133 21.333l-89.6 174.933v-507.733c8.533 0 17.067 0 21.333-4.267l179.2-93.867-34.133 200.533c0 12.8 4.267 25.6 12.8 38.4zM328.533 456.533c8.533-12.8 12.8-25.6 12.8-38.4l-34.133-200.533 179.2 93.867c4.267 4.267 12.8 4.267 21.333 4.267v507.733l-89.6-174.933c-4.267-12.8-17.067-21.333-34.133-21.333l-200.533-29.867 145.067-140.8z" />
<glyph unicode="&#xe941;" glyph-name="circle-plus" d="M512 42.667c-259.206 0-469.333 210.128-469.333 469.333s210.128 469.333 469.333 469.333c259.206 0 469.333-210.128 469.333-469.333s-210.128-469.333-469.333-469.333zM512 128c212.077 0 384 171.923 384 384s-171.923 384-384 384c-212.077 0-384-171.923-384-384s171.923-384 384-384zM469.333 682.667c0 23.564 19.103 42.667 42.667 42.667s42.667-19.103 42.667-42.667v-341.333c0-23.564-19.103-42.667-42.667-42.667s-42.667 19.103-42.667 42.667v341.333zM341.333 469.333c-23.564 0-42.667 19.103-42.667 42.667s19.103 42.667 42.667 42.667h341.333c23.564 0 42.667-19.103 42.667-42.667s-19.103-42.667-42.667-42.667h-341.333z" />
<glyph unicode="&#xe942;" glyph-name="circle-bold" d="M516.267 85.333c-236.725-0.945-429.523 189.944-430.933 426.667 7.326 232.837 198.194 417.795 431.147 417.795s423.821-184.958 431.147-417.795c-1.644-236.791-194.565-427.613-431.36-426.667zM516.267 768c-140.745-2.581-253-118.313-251.288-259.072s116.751-253.725 257.517-252.881c140.766 0.845 254.44 115.184 254.464 255.952-1.407 142.634-118.058 257.184-260.693 256z" />
<glyph unicode="&#xe943;" glyph-name="trash" d="M857.6 781.576h-153.6v39.273c0 66.764-49.92 117.818-115.2 117.818h-153.6c-65.28 0-115.2-51.055-115.2-117.818v-39.273h-153.6c-23.040 0-38.4-15.709-38.4-39.273s15.36-39.273 38.4-39.273h38.4v-510.545c0-66.764 49.92-117.818 115.2-117.818h384c65.28 0 115.2 51.055 115.2 117.818v510.545h38.4c23.040 0 38.4 15.709 38.4 39.273s-15.36 39.273-38.4 39.273zM396.8 820.848c0 23.564 15.36 39.273 38.4 39.273h153.6c23.040 0 38.4-15.709 38.4-39.273v-39.273h-230.4v39.273zM742.4 192.485c0-23.564-15.36-39.273-38.4-39.273h-384c-23.040 0-38.4 15.709-38.4 39.273v510.545h460.8v-510.545zM473.6 545.939v-235.636c0-23.564-15.36-39.273-38.4-39.273s-38.4 15.709-38.4 39.273v235.636c0 23.564 15.36 39.273 38.4 39.273s38.4-15.709 38.4-39.273zM627.2 545.939v-235.636c0-23.564-15.36-39.273-38.4-39.273s-38.4 15.709-38.4 39.273v235.636c0 23.564 15.36 39.273 38.4 39.273s38.4-15.709 38.4-39.273z" />
<glyph unicode="&#xe944;" glyph-name="add-plus" d="M554.667 554.667h256c23.564 0 42.667-19.103 42.667-42.667s-19.103-42.667-42.667-42.667h-256v-256c0-23.564-19.103-42.667-42.667-42.667s-42.667 19.103-42.667 42.667v256h-256c-23.564 0-42.667 19.103-42.667 42.667s19.103 42.667 42.667 42.667h256v256c0 23.564 19.103 42.667 42.667 42.667s42.667-19.103 42.667-42.667v-256z" />
<glyph unicode="&#xe945;" glyph-name="more-horiz" d="M256 597.333c-46.933 0-85.333-38.4-85.333-85.333s38.4-85.333 85.333-85.333c46.933 0 85.333 38.4 85.333 85.333s-38.4 85.333-85.333 85.333zM768 597.333c-46.933 0-85.333-38.4-85.333-85.333s38.4-85.333 85.333-85.333c46.933 0 85.333 38.4 85.333 85.333s-38.4 85.333-85.333 85.333zM512 597.333c-46.933 0-85.333-38.4-85.333-85.333s38.4-85.333 85.333-85.333c46.933 0 85.333 38.4 85.333 85.333s-38.4 85.333-85.333 85.333z" />
<glyph unicode="&#xe946;" glyph-name="user-search" d="M669.867 128c-21.333 0-38.4 17.067-38.4 38.4v76.8c0 64-51.2 115.2-119.467 115.2h-273.067c-68.267 0-119.467-51.2-119.467-115.2v-76.8c0-21.333-17.067-38.4-38.4-38.4s-38.4 17.067-38.4 38.4v76.8c0 106.667 85.333 192 196.267 192h273.067c110.933 0 196.267-85.333 196.267-192v-76.8c0-21.333-17.067-38.4-38.4-38.4zM895.162 496.679l39.346-56.191c10.137-14.477 6.619-34.43-7.858-44.567s-34.43-6.619-44.567 7.858l-37.191 53.115c-13.828-5.731-28.99-8.894-44.89-8.894-64.801 0-117.333 52.532-117.333 117.333s52.532 117.333 117.333 117.333c64.801 0 117.333-52.532 117.333-117.333 0-25.636-8.222-49.352-22.172-68.654zM375.467 512c-110.933 0-196.267 85.333-196.267 192s85.333 192 196.267 192c110.933 0 196.267-85.333 196.267-192s-85.333-192-196.267-192zM375.467 819.2c-64 0-115.2-51.2-115.2-115.2s51.2-115.2 115.2-115.2c64 0 119.467 51.2 119.467 115.2s-51.2 115.2-119.467 115.2zM801.314 491.958c41.237 0 74.667 33.429 74.667 74.667s-33.429 74.667-74.667 74.667c-41.237 0-74.667-33.429-74.667-74.667s33.429-74.667 74.667-74.667z" />
<glyph unicode="&#xe947;" glyph-name="redo" d="M853.215 627.215v192.002c0 21.208 17.192 38.4 38.4 38.4s38.4-17.192 38.4-38.4v-230.402c0-21.208-17.192-38.4-38.4-38.4h-230.402c-21.208 0-38.4 17.192-38.4 38.4s17.192 38.4 38.4 38.4h192.002zM759.024 409.605c7.065 19.997 29.002 30.48 48.999 23.415s30.48-29.002 23.415-48.999c-56.977-161.272-213.748-265.419-384.498-255.43s-314.308 131.706-352.091 298.522c-37.783 166.816 39.319 338.511 189.1 421.099s336.128 56.156 456.199-64.015l177.794-167.426c15.44-14.539 16.17-38.842 1.63-54.282s-38.842-16.17-54.282-1.63l-178.63 168.237c-96.725 96.786-245.803 117.932-365.628 51.861s-181.506-203.426-151.28-336.879c30.226-133.453 145.073-230.826 281.673-238.817s262.017 75.326 307.598 204.344z" />
<glyph unicode="&#xe948;" glyph-name="facebook" d="M374.149 640.776v74.473c0 123.39 105.795 223.418 236.299 223.418h118.149c21.751 0 39.383-16.671 39.383-37.236v-148.945c0-20.565-17.632-37.236-39.383-37.236h-118.149v-74.473h118.149c25.622 0 44.421-22.766 38.207-46.268l-39.383-148.945c-4.383-16.576-20.136-28.205-38.207-28.205h-78.766v-260.655c0-20.565-17.632-37.236-39.383-37.236h-157.532c-21.751 0-39.383 16.671-39.383 37.236v260.655h-78.766c-21.751 0-39.383 16.671-39.383 37.236v148.945c0 20.565 17.632 37.236 39.383 37.236h78.766zM689.214 864.194h-78.766c-87.003 0-157.532-66.685-157.532-148.945v-111.709c0-20.565-17.632-37.236-39.383-37.236h-78.766v-74.473h78.766c21.751 0 39.383-16.671 39.383-37.236v-260.655h78.766v260.655c0 20.565 17.632 37.236 39.383 37.236h87.4l19.692 74.473h-107.092c-21.751 0-39.383 16.671-39.383 37.236v111.709c0 41.13 35.265 74.473 78.766 74.473h78.766v74.473z" />
<glyph unicode="&#xe949;" glyph-name="radio-btn" d="M512 85.333c-234.667 0-426.667 192-426.667 426.667s192 426.667 426.667 426.667c234.667 0 426.667-192 426.667-426.667s-192-426.667-426.667-426.667zM512 861.867c-192 0-349.867-153.6-349.867-349.867s153.6-349.867 349.867-349.867c196.267 0 349.867 153.6 349.867 349.867s-157.867 349.867-349.867 349.867zM512 315.733c108.395 0 196.267 87.872 196.267 196.267s-87.872 196.267-196.267 196.267c-108.395 0-196.267-87.872-196.267-196.267s87.872-196.267 196.267-196.267z" />
<glyph unicode="&#xe94a;" glyph-name="play" d="M213.333 85.333c-8.533 0-12.8 0-21.333 4.256-12.8 8.512-21.333 21.28-21.333 38.304v766.085c0 17.024 8.533 29.792 21.333 38.304s29.867 8.512 42.667 0l597.333-383.042c12.8-8.512 21.333-21.28 21.333-34.048s-8.533-29.792-21.333-34.048l-597.333-383.042c-4.267-8.512-12.8-12.768-21.333-12.768zM256 817.37v-608.612l477.867 302.178-477.867 306.434z" />
<glyph unicode="&#xe94b;" glyph-name="person-add" d="M668.444 128c-23.467 0-39.111 15.36-39.111 38.4v76.8c0 65.28-50.844 115.2-117.333 115.2h-273.778c-66.489 0-117.333-49.92-117.333-115.2v-76.8c0-23.040-15.644-38.4-39.111-38.4s-39.111 15.36-39.111 38.4v76.8c0 107.52 86.044 192 195.556 192h273.778c109.511 0 195.556-84.48 195.556-192v-76.8c0-23.040-15.644-38.4-39.111-38.4zM375.111 512c-109.511 0-195.556 84.48-195.556 192s86.044 192 195.556 192c109.511 0 195.556-84.48 195.556-192s-86.044-192-195.556-192zM375.111 819.2c-66.489 0-117.333-49.92-117.333-115.2s50.844-115.2 117.333-115.2c66.489 0 117.333 49.92 117.333 115.2s-50.844 115.2-117.333 115.2zM942.222 588.8c23.467 0 39.111-15.36 39.111-38.4s-15.644-38.4-39.111-38.4h-78.222v-76.8c0-23.040-15.644-38.4-39.111-38.4s-39.111 15.36-39.111 38.4v76.8h-78.222c-23.467 0-39.111 15.36-39.111 38.4s15.644 38.4 39.111 38.4h78.222v76.8c0 23.040 15.644 38.4 39.111 38.4s39.111-15.36 39.111-38.4v-76.8h78.222z" />
<glyph unicode="&#xe94c;" glyph-name="square" d="M690.773 128h-349.44c-117.821 0-213.333 95.513-213.333 213.333v341.333c0 117.821 95.513 213.333 213.333 213.333h349.44c117.821 0 213.333-95.513 213.333-213.333v-341.333c0-117.821-95.513-213.333-213.333-213.333zM341.333 810.667c-70.692 0-128-57.308-128-128v-341.333c0-70.692 57.308-128 128-128h349.44c70.692 0 128 57.308 128 128v341.333c0 70.692-57.308 128-128 128h-349.44z" />
<glyph unicode="&#xe94d;" glyph-name="sidebar" d="M818.773 85.333h-605.44c-70.692 0-128 57.308-128 128v597.333c0 70.692 57.308 128 128 128h605.44c70.692 0 128-57.308 128-128v-597.333c0-70.692-57.308-128-128-128zM429.227 170.667h389.547c23.564 0 42.667 19.103 42.667 42.667v597.333c0 23.564-19.103 42.667-42.667 42.667h-389.547v-682.667zM213.333 853.333c-23.564 0-42.667-19.103-42.667-42.667v-597.333c0-23.564 19.103-42.667 42.667-42.667h130.56v682.667h-130.56z" />
<glyph unicode="&#xe94e;" glyph-name="message" d="M170.667 128c-23.564 0-42.667 19.103-42.667 42.667v606.72c-0.476 64.708 51.35 117.677 116.053 118.613h514.987c64.871-0.703 116.954-53.741 116.48-118.613v-379.307c0.227-31.119-11.917-61.054-33.762-83.218s-51.599-34.743-82.718-34.969h-423.253l-134.4-139.093c-8.085-8.249-19.17-12.867-30.72-12.8zM244.053 810.667c-8.489-0.333-16.498-4.028-22.26-10.27s-8.806-14.521-8.46-23.010v-501.333l73.813 75.947c8.013 8.406 19.107 13.182 30.72 13.227h441.173c8.488 0.223 16.539 3.811 22.381 9.973s8.995 14.393 8.766 22.881v379.307c0.481 17.75-13.404 32.586-31.147 33.28h-514.987z" />
<glyph unicode="&#xe94f;" glyph-name="rating" d="M960 635.733c-4.267 17.067-17.067 25.6-34.133 29.867l-260.267 38.4-119.467 234.667c-12.8 29.867-59.733 29.867-72.533 0l-115.2-234.667-256-42.667c-17.067 0-29.867-8.533-38.4-25.6-4.267-17.067 0-34.133 12.8-42.667l187.733-183.467-42.667-260.267c-4.267-17.067 4.267-34.133 17.067-42.667s29.867-12.8 42.667-4.267l230.4 123.733 230.4-123.733c8.533 0 12.8 0 21.333 0s17.067 4.267 25.6 8.533c12.8 8.533 21.333 25.6 17.067 42.667l-42.667 260.267 187.733 183.467c8.533 8.533 12.8 25.6 8.533 38.4zM686.933 456.533c-8.533-12.8-12.8-25.6-12.8-38.4l34.133-200.533-179.2 93.867c-4.267 4.267-12.8 4.267-21.333 4.267v507.733l89.6-174.933c4.267-12.8 17.067-21.333 34.133-21.333l200.533-29.867-145.067-140.8z" />
<glyph unicode="&#xe950;" glyph-name="paperclip" d="M364.461 42.667c-75.763 0-143.551 28.946-199.377 86.837-51.838 53.756-79.751 124.053-79.751 202.62s27.913 148.863 83.738 206.755l366.854 380.429c35.888 37.216 87.726 62.026 139.564 62.026s103.676-20.675 139.564-62.026c79.751-82.702 79.751-210.89 0-293.592l-366.854-380.429c-43.863-45.486-123.614-45.486-167.477 0-23.925 20.675-35.888 53.756-35.888 86.837s11.963 66.162 35.888 86.837l338.941 351.483c15.95 16.54 39.875 16.54 55.826 0s15.95-41.351 0-57.891l-338.941-351.483c-7.975-8.27-11.963-16.54-11.963-28.946s3.988-20.675 11.963-28.946c15.95-16.54 39.875-16.54 55.826 0l366.854 380.429c47.85 49.621 47.85 128.188 0 173.674-43.863 45.486-123.614 45.486-167.477 0l-366.854-380.429c-39.875-37.216-59.813-90.972-59.813-144.728s19.938-107.512 59.813-144.728c35.888-41.351 87.726-62.026 139.564-62.026s103.676 20.675 139.564 62.026l366.854 380.429c15.95 16.54 39.875 16.54 55.826 0s15.95-41.351 0-57.891l-362.866-380.429c-55.826-57.891-123.614-86.837-199.377-86.837z" />
<glyph unicode="&#xe951;" glyph-name="fork" d="M524.373 125.867c-56.47 0.012-110.632 22.413-150.613 62.293l-185.6 185.6c-83.281 83.307-83.281 218.347 0 301.653l160.427 160.427c83.307 83.281 218.347 83.281 301.653 0l185.6-185.6c83.281-83.307 83.281-218.347 0-301.653l-160.427-160.427c-40.086-39.985-94.422-62.394-151.040-62.293zM499.627 810.667c-34.084 0.084-66.794-13.43-90.88-37.547l-160-157.867c-24.101-24.017-37.648-56.642-37.648-90.667s13.547-66.649 37.648-90.667l185.173-185.173c24.017-24.101 56.642-37.648 90.667-37.648s66.649 13.547 90.667 37.648l160 160c24.101 24.017 37.648 56.642 37.648 90.667s-13.547 66.649-37.648 90.667l-185.173 185.173c-24.327 23.231-56.82 35.953-90.453 35.413zM469.333 682.667c0 23.564 19.103 42.667 42.667 42.667s42.667-19.103 42.667-42.667v-341.333c0-23.564-19.103-42.667-42.667-42.667s-42.667 19.103-42.667 42.667v341.333zM341.333 469.333c-23.564 0-42.667 19.103-42.667 42.667s19.103 42.667 42.667 42.667h341.333c23.564 0 42.667-19.103 42.667-42.667s-19.103-42.667-42.667-42.667h-341.333z" />
<glyph unicode="&#xe952;" glyph-name="check-circle" d="M896.003 550.985c0 23.564 19.103 42.667 42.667 42.667s42.667-19.103 42.667-42.667v-39.278c-0.119-207.853-136.938-390.871-336.261-449.804s-413.668 20.256-526.798 194.625c-113.13 174.369-98.095 402.38 36.952 560.384s357.934 208.363 547.793 123.767c21.524-9.591 31.198-34.814 21.608-56.338s-34.814-31.198-56.338-21.608c-155.339 69.215-337.702 28.013-448.194-101.264s-122.794-315.83-30.233-458.496c92.561-142.665 267.934-207.457 431.017-159.238s275.025 197.96 275.122 367.997v39.253zM908.484 883.22c16.654 16.671 43.669 16.684 60.34 0.030s16.684-43.669 0.030-60.34l-426.667-427.093c-16.66-16.677-43.687-16.683-60.355-0.015l-128 128c-16.662 16.662-16.662 43.677 0 60.34s43.677 16.662 60.34 0l97.815-97.815 396.497 396.893z" />
<glyph unicode="&#xe953;" glyph-name="image" d="M810.667 938.667h-597.333c-72.533 0-128-55.467-128-128v-597.333c0-72.533 55.467-128 128-128h597.333c72.533 0 128 55.467 128 128v597.333c0 72.533-55.467 128-128 128zM170.667 810.667c0 25.6 17.067 42.667 42.667 42.667h597.333c25.6 0 42.667-17.067 42.667-42.667v-324.267l-140.8 140.8c-17.067 17.067-42.667 17.067-59.733 0l-452.267-452.267c-17.067 4.267-29.867 21.333-29.867 38.4v597.333zM810.667 170.667h-494.933l366.933 366.933 170.667-170.667v-153.6c0-25.6-17.067-42.667-42.667-42.667zM362.667 554.667c-59.733 0-106.667 46.933-106.667 106.667s46.933 106.667 106.667 106.667c59.733 0 106.667-46.933 106.667-106.667s-46.933-106.667-106.667-106.667zM362.667 682.667c-12.8 0-21.333-8.533-21.333-21.333s8.533-21.333 21.333-21.333c12.8 0 21.333 8.533 21.333 21.333s-8.533 21.333-21.333 21.333z" />
<glyph unicode="&#xe954;" glyph-name="align-right" d="M896 640c23.564 0 42.667-19.103 42.667-42.667s-19.103-42.667-42.667-42.667h-597.333c-23.564 0-42.667 19.103-42.667 42.667s19.103 42.667 42.667 42.667h597.333zM896 810.667c23.564 0 42.667-19.103 42.667-42.667s-19.103-42.667-42.667-42.667h-768c-23.564 0-42.667 19.103-42.667 42.667s19.103 42.667 42.667 42.667h768zM896 469.333c23.564 0 42.667-19.103 42.667-42.667s-19.103-42.667-42.667-42.667h-768c-23.564 0-42.667 19.103-42.667 42.667s19.103 42.667 42.667 42.667h768zM896 298.667c23.564 0 42.667-19.103 42.667-42.667s-19.103-42.667-42.667-42.667h-597.333c-23.564 0-42.667 19.103-42.667 42.667s19.103 42.667 42.667 42.667h597.333z" />
<glyph unicode="&#xe955;" glyph-name="text" d="M896 938.667h-768c-25.6 0-42.667-17.067-42.667-42.667s17.067-42.667 42.667-42.667h341.333v-725.333c0-25.6 17.067-42.667 42.667-42.667s42.667 17.067 42.667 42.667v725.333h341.333c25.6 0 42.667 17.067 42.667 42.667s-17.067 42.667-42.667 42.667z" />
<glyph unicode="&#xe956;" glyph-name="refresh" d="M216.817 614.41c-7.206-19.997-29.555-30.471-49.918-23.395s-31.029 29.023-23.823 49.020c44.799 124.32 151.415 217.377 282.395 246.48s268.005-9.819 362.058-102.254l181.476-167.457c15.741-14.525 16.511-38.832 1.72-54.29s-39.543-16.214-55.285-1.689l-182.356 168.295c-75.947 74.618-185.567 105.755-290.351 82.473s-190.077-97.728-225.916-197.184zM903.111 627.222v192.037c0 21.212 17.511 38.407 39.111 38.407s39.111-17.196 39.111-38.407v-230.445c0-21.212-17.511-38.407-39.111-38.407h-234.667c-21.6 0-39.111 17.196-39.111 38.407s17.511 38.407 39.111 38.407h195.556zM54.996 407.195c-15.741 14.525-16.511 38.832-1.72 54.29s39.543 16.214 55.285 1.689l182.356-168.295c75.947-74.618 185.567-105.755 290.351-82.473s190.077 97.728 225.916 197.184c7.206 19.997 29.555 30.471 49.918 23.395s31.029-29.023 23.823-49.020c-44.799-124.32-151.415-217.377-282.395-246.48s-268.005 9.819-362.058 102.254l-181.476 167.457zM120.889 396.778v-192.037c0-21.212-17.511-38.407-39.111-38.407s-39.111 17.196-39.111 38.407v230.445c0 21.212 17.511 38.407 39.111 38.407h234.667c21.6 0 39.111-17.196 39.111-38.407s-17.511-38.407-39.111-38.407h-195.556z" />
<glyph unicode="&#xe957;" glyph-name="copy" d="M473.212 589.576c-21.422 0-38.788-17.366-38.788-38.788v-349.091c0-21.422 17.366-38.788 38.788-38.788h349.091c21.422 0 38.788 17.366 38.788 38.788v349.091c0 21.422-17.366 38.788-38.788 38.788h-349.091zM473.212 667.152h349.091c64.266 0 116.364-52.098 116.364-116.364v-349.091c0-64.266-52.098-116.364-116.364-116.364h-349.091c-64.266 0-116.364 52.098-116.364 116.364v349.091c0 64.266 52.098 116.364 116.364 116.364zM240.485 434.424c21.422 0 38.788-17.366 38.788-38.788s-17.366-38.788-38.788-38.788h-38.788c-64.266 0-116.364 52.098-116.364 116.364v349.091c0 64.266 52.098 116.364 116.364 116.364h349.091c64.266 0 116.364-52.098 116.364-116.364v-38.788c0-21.422-17.366-38.788-38.788-38.788s-38.788 17.366-38.788 38.788v38.788c0 21.422-17.366 38.788-38.788 38.788h-349.091c-21.422 0-38.788-17.366-38.788-38.788v-349.091c0-21.422 17.366-38.788 38.788-38.788h38.788z" />
<glyph unicode="&#xe958;" glyph-name="pages" d="M725.333 981.333h-512c-46.933 0-85.333-38.4-85.333-85.333v-597.333h85.333v597.333h512v85.333zM853.333 810.667h-469.333c-46.933 0-85.333-38.4-85.333-85.333v-597.333c0-46.933 38.4-85.333 85.333-85.333h469.333c46.933 0 85.333 38.4 85.333 85.333v597.333c0 46.933-38.4 85.333-85.333 85.333zM853.333 128h-469.333v597.333h469.333v-597.333z" />
<glyph unicode="&#xe959;" glyph-name="hamburguer-menu" d="M896 640c23.564 0 42.667-19.103 42.667-42.667s-19.103-42.667-42.667-42.667h-768c-23.564 0-42.667 19.103-42.667 42.667s19.103 42.667 42.667 42.667h768zM896 810.667c23.564 0 42.667-19.103 42.667-42.667s-19.103-42.667-42.667-42.667h-768c-23.564 0-42.667 19.103-42.667 42.667s19.103 42.667 42.667 42.667h768zM896 469.333c23.564 0 42.667-19.103 42.667-42.667s-19.103-42.667-42.667-42.667h-768c-23.564 0-42.667 19.103-42.667 42.667s19.103 42.667 42.667 42.667h768zM896 298.667c23.564 0 42.667-19.103 42.667-42.667s-19.103-42.667-42.667-42.667h-768c-23.564 0-42.667 19.103-42.667 42.667s19.103 42.667 42.667 42.667h768z" />
<glyph unicode="&#xe95a;" glyph-name="close" d="M571.733 512l226.133 226.133c17.067 17.067 17.067 42.667 0 59.733s-42.667 17.067-59.733 0l-226.133-226.133-226.133 226.133c-17.067 17.067-42.667 17.067-59.733 0s-17.067-42.667 0-59.733l226.133-226.133-226.133-226.133c-17.067-17.067-17.067-42.667 0-59.733 8.533-8.533 17.067-12.8 29.867-12.8s21.333 4.267 29.867 12.8l226.133 226.133 226.133-226.133c8.533-8.533 21.333-12.8 29.867-12.8s21.333 4.267 29.867 12.8c17.067 17.067 17.067 42.667 0 59.733l-226.133 226.133z" />
<glyph unicode="&#xe95b;" glyph-name="info" d="M512 42.667c-259.206 0-469.333 210.128-469.333 469.333s210.128 469.333 469.333 469.333c259.206 0 469.333-210.128 469.333-469.333s-210.128-469.333-469.333-469.333zM512 128c212.077 0 384 171.923 384 384s-171.923 384-384 384c-212.077 0-384-171.923-384-384s171.923-384 384-384zM554.667 341.333c0-23.564-19.103-42.667-42.667-42.667s-42.667 19.103-42.667 42.667v170.667c0 23.564 19.103 42.667 42.667 42.667s42.667-19.103 42.667-42.667v-170.667zM512 640c-23.564 0-42.667 19.103-42.667 42.667s19.103 42.667 42.667 42.667c23.564 0 42.667-19.103 42.667-42.667s-19.103-42.667-42.667-42.667z" />
<glyph unicode="&#xe95c;" glyph-name="star-active" d="M960 635.733c-4.267 17.067-17.067 25.6-34.133 29.867l-260.267 38.4-119.467 234.667c-12.8 29.867-59.733 29.867-72.533 0l-115.2-234.667-256-42.667c-17.067 0-29.867-8.533-38.4-25.6-4.267-17.067 0-34.133 12.8-42.667l187.733-183.467-42.667-260.267c-4.267-17.067 4.267-34.133 17.067-42.667s29.867-12.8 42.667-4.267l230.4 123.733 230.4-123.733c8.533 0 12.8 0 21.333 0s17.067 4.267 25.6 8.533c12.8 8.533 21.333 25.6 17.067 42.667l-42.667 260.267 187.733 183.467c8.533 8.533 12.8 25.6 8.533 38.4z" />
<glyph unicode="&#xe95d;" glyph-name="email" d="M201.699 777.481c-21.245 0-38.788-17.153-38.788-37.926v-455.111c0-20.773 17.543-37.926 38.788-37.926h620.601c21.245 0 38.788 17.153 38.788 37.926v455.111c0 20.773-17.543 37.926-38.788 37.926h-620.601zM201.699 853.333h620.601c64.088 0 116.363-51.113 116.363-113.778v-455.111c0-62.664-52.275-113.778-116.363-113.778h-620.601c-64.088 0-116.363 51.113-116.363 113.778v455.111c0 62.664 52.275 113.778 116.363 113.778zM512 520.369l365.633 250.257c17.549 12.012 41.735 7.839 54.019-9.321s8.017-40.808-9.533-52.819l-387.876-265.481c-13.355-9.141-31.131-9.141-44.486 0l-387.876 265.481c-17.549 12.012-21.817 35.66-9.533 52.819s36.47 21.333 54.019 9.321l365.633-250.257z" />
<glyph unicode="&#xe95e;" glyph-name="headphones" d="M512 938.667c-234.667 0-426.667-192-426.667-426.667v-298.667c0-72.533 55.467-128 128-128h42.667c72.533 0 128 55.467 128 128v128c0 72.533-55.467 128-128 128h-85.333v42.667c0 187.733 153.6 341.333 341.333 341.333s341.333-153.6 341.333-341.333v-42.667h-85.333c-72.533 0-128-55.467-128-128v-128c0-72.533 55.467-128 128-128h42.667c72.533 0 128 55.467 128 128v298.667c0 234.667-192 426.667-426.667 426.667zM256 384c25.6 0 42.667-17.067 42.667-42.667v-128c0-25.6-17.067-42.667-42.667-42.667h-42.667c-25.6 0-42.667 17.067-42.667 42.667v170.667h85.333zM853.333 213.333c0-25.6-17.067-42.667-42.667-42.667h-42.667c-25.6 0-42.667 17.067-42.667 42.667v128c0 25.6 17.067 42.667 42.667 42.667h85.333v-170.667z" />
<glyph unicode="&#xe95f;" glyph-name="more-vert" d="M512 682.667c46.933 0 85.333 38.4 85.333 85.333s-38.4 85.333-85.333 85.333c-46.933 0-85.333-38.4-85.333-85.333s38.4-85.333 85.333-85.333zM512 597.333c-46.933 0-85.333-38.4-85.333-85.333s38.4-85.333 85.333-85.333c46.933 0 85.333 38.4 85.333 85.333s-38.4 85.333-85.333 85.333zM512 341.333c-46.933 0-85.333-38.4-85.333-85.333s38.4-85.333 85.333-85.333c46.933 0 85.333 38.4 85.333 85.333s-38.4 85.333-85.333 85.333z" />
<glyph unicode="&#xe960;" glyph-name="multiple-register" d="M810.667 85.333h-597.333c-72.533 0-128 55.467-128 128v597.333c0 72.533 55.467 128 128 128h597.333c72.533 0 128-55.467 128-128v-597.333c0-72.533-55.467-128-128-128zM213.333 853.333c-25.6 0-42.667-17.067-42.667-42.667v-597.333c0-25.6 17.067-42.667 42.667-42.667h597.333c25.6 0 42.667 17.067 42.667 42.667v597.333c0 25.6-17.067 42.667-42.667 42.667h-597.333zM469.333 554.667h256c23.564 0 42.667-19.103 42.667-42.667v0c0-23.564-19.103-42.667-42.667-42.667h-256c-23.564 0-42.667 19.103-42.667 42.667v0c0 23.564 19.103 42.667 42.667 42.667zM298.667 554.667v0c23.564 0 42.667-19.103 42.667-42.667v0c0-23.564-19.103-42.667-42.667-42.667v0c-23.564 0-42.667 19.103-42.667 42.667v0c0 23.564 19.103 42.667 42.667 42.667zM469.333 384h256c23.564 0 42.667-19.103 42.667-42.667v0c0-23.564-19.103-42.667-42.667-42.667h-256c-23.564 0-42.667 19.103-42.667 42.667v0c0 23.564 19.103 42.667 42.667 42.667zM298.667 384v0c23.564 0 42.667-19.103 42.667-42.667v0c0-23.564-19.103-42.667-42.667-42.667v0c-23.564 0-42.667 19.103-42.667 42.667v0c0 23.564 19.103 42.667 42.667 42.667zM469.333 725.333h256c23.564 0 42.667-19.103 42.667-42.667v0c0-23.564-19.103-42.667-42.667-42.667h-256c-23.564 0-42.667 19.103-42.667 42.667v0c0 23.564 19.103 42.667 42.667 42.667zM298.667 725.333v0c23.564 0 42.667-19.103 42.667-42.667v0c0-23.564-19.103-42.667-42.667-42.667v0c-23.564 0-42.667 19.103-42.667 42.667v0c0 23.564 19.103 42.667 42.667 42.667z" />
<glyph unicode="&#xe961;" glyph-name="circle-slash" d="M512 42.667c-259.206 0-469.333 210.128-469.333 469.333s210.128 469.333 469.333 469.333c259.206 0 469.333-210.128 469.333-469.333s-210.128-469.333-469.333-469.333zM512 128c212.077 0 384 171.923 384 384s-171.923 384-384 384c-212.077 0-384-171.923-384-384s171.923-384 384-384zM180.177 783.483c-16.662 16.662-16.662 43.677 0 60.34s43.677 16.662 60.34 0l603.307-603.307c16.662-16.662 16.662-43.677 0-60.34s-43.677-16.662-60.34 0l-603.307 603.307z" />
<glyph unicode="&#xe962;" glyph-name="code" d="M652.497 737.83c-16.662 16.662-16.662 43.677 0 60.34s43.677 16.662 60.34 0l256-256c16.662-16.662 16.662-43.677 0-60.34l-256-256c-16.662-16.662-43.677-16.662-60.34 0s-16.662 43.677 0 60.34l225.83 225.83-225.83 225.83zM145.673 512l225.83-225.83c16.662-16.662 16.662-43.677 0-60.34s-43.677-16.662-60.34 0l-256 256c-16.662 16.662-16.662 43.677 0 60.34l256 256c16.662 16.662 43.677 16.662 60.34 0s16.662-43.677 0-60.34l-225.83-225.83z" />
<glyph unicode="&#xe963;" glyph-name="bell" d="M512 85.333c-19.394 0-38.788 3.879-58.182 15.515s-31.030 23.273-42.667 42.667c-11.636 19.394-3.879 42.667 15.515 54.303s42.667 3.879 54.303-15.515c3.879-7.758 7.758-11.636 15.515-15.515 19.394-11.636 42.667-3.879 54.303 15.515s34.909 23.273 54.303 15.515c19.394-11.636 23.273-34.909 15.515-54.303-31.030-38.788-69.818-58.182-108.606-58.182zM899.879 279.273h-775.758c-23.273 0-38.788 15.515-38.788 38.788s15.515 38.788 38.788 38.788c42.667 0 77.576 34.909 77.576 77.576v193.939c0 170.667 139.636 310.303 310.303 310.303s310.303-139.636 310.303-310.303v-193.939c0-42.667 34.909-77.576 77.576-77.576 23.273 0 38.788-15.515 38.788-38.788s-15.515-38.788-38.788-38.788zM259.879 356.848h508.121c-11.636 23.273-19.394 50.424-19.394 77.576v193.939c0 128-104.727 232.727-232.727 232.727s-236.606-104.727-236.606-232.727v-193.939c0-27.152-7.758-54.303-19.394-77.576z" />
<glyph unicode="&#xe964;" glyph-name="wallet" d="M896 554.667h42.667v-213.333h-42.667v-174.545c0-23.273-15.17-38.788-37.926-38.788h-597.333c-72.059 0-132.741 62.061-132.741 135.758v496.485c0 73.697 60.681 135.758 132.741 135.758h597.333c22.756 0 37.926-15.515 37.926-38.788v-302.545zM820.148 554.667v77.576h-559.407c-18.963 0-37.926 3.879-56.889 15.515v-376.242c0-31.030 26.548-58.182 56.889-58.182h559.407v128h-137.481c-47.128 0-85.333 38.205-85.333 85.333v42.667c0 47.128 38.205 85.333 85.333 85.333h137.481zM260.741 717.576h559.407v116.364h-559.407c-30.341 0-56.889-27.152-56.889-58.182s26.548-58.182 56.889-58.182zM853.333 426.667v42.667h-170.667v-42.667h170.667z" />
<glyph unicode="&#xe965;" glyph-name="book" d="M815.407 938.667h-512c-72.059 0-132.741-62.061-132.741-135.758v-581.818c0-73.697 60.681-135.758 132.741-135.758h512c22.756 0 37.926 15.515 37.926 38.788v775.758c0 23.273-15.17 38.788-37.926 38.788zM303.407 861.091h474.074v-504.242h-474.074c-18.963 0-37.926-3.879-56.889-15.515v461.576c0 31.030 26.548 58.182 56.889 58.182zM303.407 162.909c-30.341 0-56.889 27.152-56.889 58.182s26.548 58.182 56.889 58.182h474.074v-116.364h-474.074z" />
<glyph unicode="&#xe966;" glyph-name="book-open" d="M938.667 938.667h-256c-68.267 0-132.267-34.133-170.667-85.333-38.4 51.2-102.4 85.333-170.667 85.333h-256c-25.6 0-42.667-17.067-42.667-42.667v-640c0-25.6 17.067-42.667 42.667-42.667h298.667c46.933 0 85.333-38.4 85.333-85.333 0-25.6 17.067-42.667 42.667-42.667s42.667 17.067 42.667 42.667c0 46.933 38.4 85.333 85.333 85.333h298.667c25.6 0 42.667 17.067 42.667 42.667v640c0 25.6-17.067 42.667-42.667 42.667zM469.333 277.333c-25.6 12.8-55.467 21.333-85.333 21.333h-256v554.667h213.333c72.533 0 128-55.467 128-128v-448zM896 298.667h-256c-29.867 0-59.733-8.533-85.333-21.333v448c0 72.533 55.467 128 128 128h213.333v-554.667z" />
<glyph unicode="&#xe967;" glyph-name="import" d="M627.932 524.068l-129.464 129.464c-6.665 6.665-17.471 6.665-24.136 0-3.201-3.201-4.999-7.542-4.999-12.068v-78.264c0-4.713-3.821-8.533-8.533-8.533h-290.133c-23.564 0-42.667-19.103-42.667-42.667v0c0-23.564 19.103-42.667 42.667-42.667h290.133c4.713 0 8.533-3.821 8.533-8.533v-78.264c0-9.426 7.641-17.067 17.067-17.067 4.526 0 8.867 1.798 12.068 4.999l129.464 129.464c6.665 6.665 6.665 17.471 0 24.136zM896 256v512c0 47.36-38.4 85.333-85.333 85.333h-512c-47.128 0-85.333-38.205-85.333-85.333v-85.333c0-23.564 19.103-42.667 42.667-42.667v0c23.564 0 42.667 19.103 42.667 42.667v64c0 11.782 9.551 21.333 21.333 21.333h469.333c11.782 0 21.333-9.551 21.333-21.333v-469.333c0-11.782-9.551-21.333-21.333-21.333h-469.333c-11.782 0-21.333 9.551-21.333 21.333v64c0 23.564-19.103 42.667-42.667 42.667v0c-23.564 0-42.667-19.103-42.667-42.667v-85.333c0-47.128 38.205-85.333 85.333-85.333h512c47.128 0 85.333 38.205 85.333 85.333z" />
<glyph unicode="&#xe968;" glyph-name="download" d="M554.667 487.006l140.497 140.497c16.662 16.662 43.677 16.662 60.34 0s16.662-43.677 0-60.34l-213.333-213.333c-16.662-16.662-43.677-16.662-60.34 0l-213.333 213.333c-16.662 16.662-16.662 43.677 0 60.34s43.677 16.662 60.34 0l140.497-140.497v408.994c0 23.564 19.103 42.667 42.667 42.667s42.667-19.103 42.667-42.667v-408.994zM853.333 384c0 23.564 19.103 42.667 42.667 42.667s42.667-19.103 42.667-42.667v-170.667c0-70.692-57.308-128-128-128h-597.333c-70.692 0-128 57.308-128 128v170.667c0 23.564 19.103 42.667 42.667 42.667s42.667-19.103 42.667-42.667v-170.667c0-23.564 19.103-42.667 42.667-42.667h597.333c23.564 0 42.667 19.103 42.667 42.667v170.667z" />
<glyph unicode="&#xe969;" glyph-name="desktop" d="M853.333 938.667h-682.667c-72.533 0-128-55.467-128-128v-426.667c0-72.533 55.467-128 128-128h298.667v-85.333h-128c-25.6 0-42.667-17.067-42.667-42.667s17.067-42.667 42.667-42.667h341.333c25.6 0 42.667 17.067 42.667 42.667s-17.067 42.667-42.667 42.667h-128v85.333h298.667c72.533 0 128 55.467 128 128v426.667c0 72.533-55.467 128-128 128zM896 384c0-25.6-17.067-42.667-42.667-42.667h-682.667c-25.6 0-42.667 17.067-42.667 42.667v426.667c0 25.6 17.067 42.667 42.667 42.667h682.667c25.6 0 42.667-17.067 42.667-42.667v-426.667z" />
<glyph unicode="&#xe96a;" glyph-name="settings" d="M515.911 42.667c-66.489 0-117.333 50.844-117.333 117.333 0 11.733-7.822 23.467-15.644 27.378-11.733 3.911-23.467 3.911-31.289-3.911-46.933-46.933-121.244-46.933-168.178-3.911-23.467 23.467-35.2 50.844-35.2 82.133s11.733 62.578 35.2 82.133c7.822 7.822 11.733 19.556 7.822 31.289-3.911 7.822-11.733 15.644-23.467 15.644h-7.822c-66.489 0-117.333 50.844-117.333 117.333s50.844 117.333 117.333 117.333c11.733 0 23.467 7.822 27.378 15.644 3.911 11.733 3.911 23.467-3.911 31.289-50.844 46.933-50.844 121.244-3.911 168.178s121.244 46.933 164.267 0c11.733-7.822 23.467-11.733 31.289-7.822 3.911 0 3.911 0 7.822 3.911 7.822 3.911 11.733 11.733 11.733 19.556v7.822c0 66.489 50.844 117.333 117.333 117.333s117.333-50.844 117.333-117.333c0-11.733 7.822-23.467 15.644-27.378 11.733-3.911 19.556-3.911 27.378 3.911 23.467 23.467 54.756 35.2 86.044 35.2s58.667-11.733 82.133-35.2c46.933-46.933 46.933-121.244 0-164.267-7.822-7.822-11.733-19.556-7.822-31.289 0-3.911 0-3.911 3.911-7.822s11.733-7.822 19.556-7.822h7.822c66.489 0 117.333-50.844 117.333-117.333s-50.844-117.333-117.333-117.333c-11.733 0-23.467-7.822-27.378-15.644s-3.911-19.556 3.911-27.378c46.933-46.933 46.933-121.244 3.911-168.178-46.933-46.933-121.244-46.933-164.267 0-7.822 7.822-19.556 11.733-31.289 7.822-7.822-3.911-15.644-11.733-15.644-23.467v-7.822c0-66.489-54.756-117.333-117.333-117.333zM367.289 265.6c15.644 0 27.378-3.911 43.022-7.822 39.111-15.644 62.578-50.844 66.489-93.867 0 0 0-3.911 0-3.911 0-23.467 15.644-39.111 39.111-39.111s39.111 15.644 39.111 39.111v7.822c0 43.022 23.467 78.222 62.578 93.867s82.133 7.822 113.422-19.556c11.733-11.733 19.556-15.644 31.289-15.644s19.556 3.911 27.378 11.733c7.822 7.822 11.733 15.644 11.733 27.378s-3.911 19.556-11.733 27.378c-31.289 31.289-39.111 78.222-23.467 117.333s54.756 62.578 93.867 62.578c23.467 0 43.022 15.644 43.022 39.111s-15.644 39.111-39.111 39.111h-7.822c-43.022 0-78.222 23.467-93.867 62.578 0 3.911-3.911 7.822-3.911 11.733-11.733 35.2-3.911 78.222 23.467 105.6 19.556 19.556 19.556 43.022 3.911 58.667-7.822 7.822-15.644 11.733-27.378 11.733s-19.556-3.911-27.378-11.733c-31.289-31.289-78.222-39.111-117.333-23.467s-62.578 54.756-62.578 93.867c0 27.378-15.644 43.022-39.111 43.022s-39.111-15.644-39.111-39.111v-7.822c0-43.022-23.467-78.222-62.578-93.867-3.911 0-7.822-3.911-11.733-3.911-35.2-11.733-78.222-3.911-105.6 23.467-19.556 19.556-43.022 19.556-58.667 3.911s-15.644-39.111 0-54.756c31.289-31.289 39.111-78.222 23.467-117.333s-50.844-62.578-93.867-66.489c0 0-3.911 0-3.911 0-23.467 0-39.111-15.644-39.111-39.111s15.644-39.111 39.111-39.111h7.822c43.022 0 78.222-23.467 93.867-62.578s7.822-82.133-19.556-113.422c-11.733-11.733-15.644-19.556-15.644-31.289s3.911-19.556 11.733-27.378c15.644-15.644 39.111-15.644 54.756 0 23.467 23.467 50.844 31.289 74.311 31.289zM512 355.556c-86.044 0-156.444 70.4-156.444 156.444s70.4 156.444 156.444 156.444c86.044 0 156.444-70.4 156.444-156.444s-70.4-156.444-156.444-156.444zM512 590.222c-43.022 0-78.222-35.2-78.222-78.222s35.2-78.222 78.222-78.222c43.022 0 78.222 35.2 78.222 78.222s-35.2 78.222-78.222 78.222z" />
<glyph unicode="&#xe96b;" glyph-name="component-outline" d="M435.2 204.8h345.6c21.208 0 38.4 17.192 38.4 38.4v345.6h-384v-384zM358.4 204.8v384h-153.6v-345.6c0-21.208 17.192-38.4 38.4-38.4h115.2zM819.2 665.6v115.2c0 21.208-17.192 38.4-38.4 38.4h-537.6c-21.208 0-38.4-17.192-38.4-38.4v-115.2h614.4zM243.2 896h537.6c63.623 0 115.2-51.577 115.2-115.2v-537.6c0-63.623-51.577-115.2-115.2-115.2h-537.6c-63.623 0-115.2 51.577-115.2 115.2v537.6c0 63.623 51.577 115.2 115.2 115.2z" />
<glyph unicode="&#xe96c;" glyph-name="number" d="M810.667 85.333h-597.333c-72.533 0-128 55.467-128 128v597.333c0 72.533 55.467 128 128 128h597.333c72.533 0 128-55.467 128-128v-597.333c0-72.533-55.467-128-128-128zM213.333 853.333c-25.6 0-42.667-17.067-42.667-42.667v-597.333c0-25.6 17.067-42.667 42.667-42.667h597.333c25.6 0 42.667 17.067 42.667 42.667v597.333c0 25.6-17.067 42.667-42.667 42.667h-597.333zM576 371.2h-21.333v324.267c0 12.8-8.533 21.333-21.333 21.333h-85.333c-21.333 0-34.133-17.067-34.133-34.133s17.067-34.133 34.133-34.133h29.867v-273.067h-29.867c-17.067 0-34.133-12.8-34.133-34.133 0-17.067 12.8-34.133 34.133-34.133h123.733c17.067 0 34.133 12.8 34.133 34.133 4.267 17.067-8.533 29.867-29.867 29.867z" />
<glyph unicode="&#xe96d;" glyph-name="arrow-right" d="M214.4 554.667h494.933l-226.133 226.133c-17.067 17.067-17.067 42.667 0 59.733s42.667 17.067 59.733 0l298.667-298.667c4.267-4.267 8.533-8.533 8.533-12.8 4.267-8.533 4.267-21.333 0-34.133-4.267-4.267-4.267-8.533-8.533-12.8l-298.667-298.667c-8.533-8.533-21.333-12.8-29.867-12.8s-21.333 4.267-29.867 12.8c-17.067 17.067-17.067 42.667 0 59.733l226.133 226.133h-494.933c-25.6 0-42.667 17.067-42.667 42.667s17.067 42.667 42.667 42.667z" />
<glyph unicode="&#xe96e;" glyph-name="link" d="M584.44 370.804c-10.606 0-21.212 0-31.818 3.519-56.566 7.038-106.060 38.708-137.879 80.935-10.606 14.076-7.071 38.708 7.071 49.265s38.889 7.038 49.495-7.038c21.212-31.67 56.566-49.265 91.919-56.302 38.889-7.038 74.242 3.519 106.061 28.151 7.071 3.519 10.606 7.038 14.141 14.076l106.061 105.567c53.030 56.302 53.030 144.275-3.535 197.058s-141.414 52.784-197.98 0l-60.101-59.821c-14.141-14.076-35.353-14.076-49.495 0s-14.141 35.189 0 49.265l60.101 59.821c81.313 80.935 212.121 80.935 293.434 0 84.848-80.935 84.848-214.653 3.535-299.107l-106.060-105.567c-7.071-7.038-14.141-14.076-21.212-21.113-35.353-24.632-77.778-38.708-123.737-38.708zM485.45 187.821l60.101 59.821c14.141 14.076 14.141 35.189 0 49.265s-35.353 14.076-49.495 0l-60.101-59.821c-56.566-52.784-141.414-52.784-197.98 0-28.283 24.632-42.424 59.821-42.424 98.529s14.141 73.897 38.889 98.529l106.060 105.567c3.535 3.519 10.606 10.557 14.141 14.076 31.818 21.113 67.172 31.67 106.060 28.151 38.889-7.038 70.707-24.632 91.919-56.302 10.606-14.076 35.353-17.595 49.495-7.038s17.677 35.189 7.071 49.265c-35.354 45.746-84.848 73.897-137.879 80.935-53.030 10.557-109.596-3.519-155.555-38.708-7.071-7.038-14.141-14.076-21.212-21.113l-106.060-105.567c-42.424-38.708-63.636-91.491-60.101-147.794 0-56.302 24.747-109.086 63.636-147.794 42.424-38.708 95.454-59.821 148.485-59.821s106.060 17.595 144.949 59.821z" />
<glyph unicode="&#xe96f;" glyph-name="btn" d="M810.667 85.333h-597.333c-72.533 0-128 55.467-128 128v597.333c0 72.533 55.467 128 128 128h597.333c72.533 0 128-55.467 128-128v-597.333c0-72.533-55.467-128-128-128zM213.333 853.333c-25.6 0-42.667-17.067-42.667-42.667v-597.333c0-25.6 17.067-42.667 42.667-42.667h597.333c25.6 0 42.667 17.067 42.667 42.667v597.333c0 25.6-17.067 42.667-42.667 42.667h-597.333zM324.267 631.467c12.8 0 21.333 0 29.867-4.267 8.533 0 17.067-4.267 25.6-8.533 4.267-4.267 8.533-12.8 12.8-21.333s4.267-17.067 4.267-29.867c0-12.8-4.267-21.333-8.533-29.867s-12.8-12.8-25.6-21.333c12.8-4.267 25.6-12.8 34.133-21.333s12.8-21.333 12.8-38.4c0-12.8-4.267-21.333-8.533-29.867s-12.8-17.067-17.067-21.333c-8.533-4.267-17.067-8.533-25.6-12.8s-21.333-4.267-29.867-4.267h-93.867c-12.8 0-25.6 12.8-25.6 25.6v192c0 12.8 12.8 25.6 25.6 25.6h89.6zM315.733 533.333c8.533 0 17.067 4.267 21.333 8.533s8.533 12.8 8.533 21.333c0 4.267 0 8.533-4.267 12.8 0 4.267-4.267 4.267-8.533 8.533-4.267 0-8.533 4.267-12.8 4.267s-8.533 0-12.8 0h-42.667v-55.467h51.2zM320 430.933c4.267 0 8.533 0 12.8 0s8.533 4.267 12.8 4.267c4.267 4.267 4.267 4.267 8.533 8.533 0 4.267 4.267 8.533 4.267 17.067 0 12.8-4.267 21.333-8.533 25.6-8.533 4.267-17.067 8.533-25.6 8.533h-59.733v-64h55.467zM588.8 635.733c12.8 0 25.6-12.8 29.867-25.6 0-12.8-12.8-25.6-25.6-25.6h-51.2v-166.4c0-12.8-12.8-25.6-25.6-25.6s-25.6 12.8-25.6 25.6v166.4h-51.2c-12.8 0-25.6 12.8-25.6 25.6s12.8 25.6 25.6 25.6h149.333zM789.333 388.267c-8.533 0-17.067 4.267-21.333 8.533l-93.867 123.733v-110.933c0-12.8-12.8-25.6-25.6-25.6s-25.6 12.8-25.6 25.6v192c0 12.8 8.533 21.333 17.067 25.6s21.333 0 29.867-8.533l93.867-123.733v106.667c0 12.8 12.8 25.6 25.6 25.6s21.333-12.8 21.333-25.6v-183.467c0-12.8-8.533-21.333-17.067-25.6l-4.267-4.267z" />
<glyph unicode="&#xe970;" glyph-name="chevron-right" d="M384 213.333c-12.8 0-21.333 4.267-29.867 12.8-17.067 17.067-17.067 42.667 0 59.733l226.133 226.133-226.133 226.133c-17.067 17.067-17.067 42.667 0 59.733s42.667 17.067 59.733 0l256-256c17.067-17.067 17.067-42.667 0-59.733l-256-256c-8.533-8.533-17.067-12.8-29.867-12.8z" />
<glyph unicode="&#xe971;" glyph-name="awards" d="M413.932 378.121l-30.021-220.981 128.842 75.58c12.667 7.431 28.492 7.431 41.16 0l128.855-75.588-29.991 221.005c-36.906-14.527-77.22-22.522-119.444-22.522-42.208 0-82.507 7.989-119.401 22.505zM338.913 419.959c-76.346 57.178-125.58 147.225-125.58 248.515 0 172.787 143.269 312.859 320 312.859s320-140.072 320-312.859c0-101.27-49.214-191.302-125.535-248.481l45.187-332.985c4.405-32.463-31.51-55.526-60.232-38.678l-179.42 105.25-179.42-105.25c-28.724-16.85-64.642 6.218-60.232 38.683l45.232 332.946zM666.557 473.271c64.381 42.083 106.776 113.803 106.776 195.203 0 129.59-107.452 234.644-240 234.644s-240-105.054-240-234.644c0-129.59 107.452-234.644 240-234.644 46.554 0 90.011 12.959 126.805 35.389 1.988 1.538 4.134 2.898 6.418 4.052z" />
<glyph unicode="&#xe972;" glyph-name="cloud-upload" d="M473.004 440.568l-89.627-87.995c-15.265-14.987-40.015-14.987-55.281 0s-15.265 39.286 0 54.273l156.357 153.509c15.265 14.987 40.015 14.987 55.281 0l156.357-153.509c15.265-14.987 15.265-39.286 0-54.273s-40.015-14.987-55.281 0l-89.627 87.995v-274.191c0-21.195-17.501-38.377-39.089-38.377s-39.089 17.182-39.089 38.377v274.191zM746.598 665.28c102.309 0.079 192.864-64.962 223.765-160.715s-4.984-200.125-88.673-257.903c-17.659-12.192-42.042-8.020-54.46 9.317s-8.169 41.276 9.49 53.468c55.792 38.519 79.716 108.099 59.115 171.935s-80.971 107.196-149.207 107.144h-49.252c-17.847 0-33.427 11.867-37.863 28.839-28.173 107.794-121.124 187.374-233.73 200.107s-221.551-44.016-273.946-142.699c-52.395-98.683-37.392-218.866 37.726-302.206 14.307-15.873 12.799-40.127-3.368-54.173s-40.871-12.566-55.178 3.307c-96.581 107.151-115.87 261.672-48.505 388.551s207.437 199.842 352.216 183.47c134.542-15.214 247.26-104.648 291.597-228.442h20.272z" />
<glyph unicode="&#xe973;" glyph-name="lock" d="M810.667 597.333h-42.667v128c0 140.8-115.2 256-256 256s-256-115.2-256-256v-128h-42.667c-72.533 0-128-55.467-128-128v-298.667c0-72.533 55.467-128 128-128h597.333c72.533 0 128 55.467 128 128v298.667c0 72.533-55.467 128-128 128zM341.333 725.333c0 93.867 76.8 170.667 170.667 170.667s170.667-76.8 170.667-170.667v-128h-341.333v128zM853.333 170.667c0-25.6-17.067-42.667-42.667-42.667h-597.333c-25.6 0-42.667 17.067-42.667 42.667v298.667c0 25.6 17.067 42.667 42.667 42.667h597.333c25.6 0 42.667-17.067 42.667-42.667v-298.667z" />
<glyph unicode="&#xe974;" glyph-name="question" d="M512 85.333c-236.606 0-426.667 190.061-426.667 426.667s190.061 426.667 426.667 426.667c236.606 0 426.667-190.061 426.667-426.667s-190.061-426.667-426.667-426.667zM512 861.091c-193.939 0-349.091-155.152-349.091-349.091s155.152-349.091 349.091-349.091c193.939 0 349.091 155.152 349.091 349.091s-155.152 349.091-349.091 349.091zM508.121 434.424c-15.515 0-31.030 11.636-34.909 27.152-7.758 19.394 3.879 42.667 23.273 50.424 23.273 7.758 89.212 38.788 89.212 81.455 0 34.909-19.394 62.061-50.424 73.697-19.394 7.758-38.788 3.879-58.182-3.879s-31.030-23.273-38.788-42.667c-7.758-19.394-31.030-31.030-50.424-23.273-23.273 0-31.030 23.273-27.152 42.667 15.515 38.788 42.667 69.818 77.576 89.212 38.788 19.394 77.576 19.394 120.242 7.758 62.061-23.273 104.727-81.455 104.727-147.394 0-100.848-128-147.394-143.515-151.273-3.879-3.879-7.758-3.879-11.636-3.879zM512 279.273c-11.636 0-19.394 3.879-27.152 11.636s-11.636 15.515-11.636 27.152c0 11.636 3.879 19.394 11.636 27.152 15.515 15.515 38.788 15.515 54.303 0 3.879-3.879 7.758-7.758 7.758-11.636s3.879-7.758 3.879-15.515c0-11.636-3.879-19.394-11.636-27.152s-15.515-11.636-27.152-11.636z" />
<glyph unicode="&#xe975;" glyph-name="chevron-up" d="M768 341.333c-12.8 0-21.333 4.267-29.867 12.8l-226.133 226.133-226.133-226.133c-17.067-17.067-42.667-17.067-59.733 0s-17.067 42.667 0 59.733l256 256c17.067 17.067 42.667 17.067 59.733 0l256-256c17.067-17.067 17.067-42.667 0-59.733-8.533-8.533-17.067-12.8-29.867-12.8z" />
<glyph unicode="&#xe976;" glyph-name="move" d="M927.976 485.303l-116.629-116.496c-7.775-7.766-15.55-11.65-27.213-11.65s-19.438 3.883-27.213 11.65c-15.55 15.533-15.55 38.832 0 54.365l50.539 50.482h-256.583v-256.291l50.539 50.482c15.55 15.533 38.876 15.533 54.427 0s15.55-38.832 0-54.365l-116.629-116.496c-3.888-3.883-7.775-7.766-11.663-7.766-3.888-3.883-11.663-3.883-15.55-3.883s-11.663 0-15.55 3.883c-3.888 3.883-7.775 3.883-11.663 7.766l-116.629 116.496c-15.55 15.533-15.55 38.832 0 54.365s38.876 15.533 54.427 0l50.539-50.482v256.291h-256.583l50.539-50.482c15.55-15.533 15.55-38.832 0-54.365-7.775-7.766-15.55-11.65-27.213-11.65s-19.438 3.883-27.213 11.65l-116.629 116.496c-3.888 3.883-7.775 7.766-7.775 11.65-3.888 7.766-3.888 19.416 0 31.066 3.888 3.883 3.888 7.766 7.775 11.65l116.629 116.496c15.55 15.533 38.876 15.533 54.427 0s15.55-38.832 0-54.365l-50.539-50.482h256.583v256.291l-50.539-50.482c-15.55-15.533-38.876-15.533-54.427 0s-15.55 38.832 0 54.365l116.629 116.496c3.888 3.883 7.775 7.766 11.663 7.766 7.775 3.883 19.438 3.883 31.101 0 3.888-3.883 7.775-3.883 11.663-7.766l116.629-116.496c15.55-15.533 15.55-38.832 0-54.365-7.775-7.766-15.55-11.65-27.213-11.65s-19.438 3.883-27.213 11.65l-50.539 50.482v-256.291h256.583l-50.539 50.482c-15.55 15.533-15.55 38.832 0 54.365s38.876 15.533 54.427 0l116.629-116.496c3.888-3.883 7.775-7.766 7.775-11.65 3.888-7.766 3.888-19.416 0-31.066 0-3.883-3.888-7.766-7.775-11.65z" />
<glyph unicode="&#xe977;" glyph-name="file" d="M891.733 657.067c-4.267 4.267-4.267 8.533-8.533 12.8l-298.667 298.667c-4.267 4.267-8.533 8.533-12.8 8.533-4.267 4.267-12.8 4.267-17.067 4.267h-298.667c-72.533 0-128-55.467-128-128v-682.667c0-72.533 55.467-128 128-128h512c72.533 0 128 55.467 128 128v469.333c0 4.267 0 12.8-4.267 17.067zM597.333 836.267l153.6-153.6h-153.6v153.6zM768 128h-512c-25.6 0-42.667 17.067-42.667 42.667v682.667c0 25.6 17.067 42.667 42.667 42.667h256v-256c0-25.6 17.067-42.667 42.667-42.667h256v-426.667c0-25.6-17.067-42.667-42.667-42.667z" />
<glyph unicode="&#xe978;" glyph-name="galery" d="M829.934 816.912h-507.419c-61.615 0-108.733-47.553-108.733-109.737v-512.105c0-62.184 47.117-109.737 108.733-109.737h507.419c61.615 0 108.733 47.553 108.733 109.737v512.105c0 62.184-47.117 109.737-108.733 109.737zM286.271 707.175c0 21.947 14.498 36.579 36.244 36.579h507.419c21.747 0 36.244-14.632 36.244-36.579v-278l-119.606 120.71c-14.498 14.632-36.244 14.632-50.742 0l-384.189-387.736c-14.498 3.658-25.371 18.289-25.371 32.921v512.105zM829.934 158.491h-420.433l311.7 314.579 144.977-146.316v-131.684c0-21.947-14.498-36.579-36.244-36.579zM449.37 487.701c-50.742 0-90.611 40.237-90.611 91.447s39.869 91.447 90.611 91.447c50.742 0 90.611-40.237 90.611-91.447s-39.869-91.447-90.611-91.447zM719.664 938.667c19.913 0 36.056-16.143 36.056-36.056s-16.143-36.056-36.056-36.056h-518.609c-23.564 0-42.667-19.103-42.667-42.667v-543.628c0-20.21-16.383-36.593-36.593-36.593-0.043 0-0.087 0-0.13 0-20.138 0.072-36.404 16.455-36.332 36.592l1.892 530.863c0.251 70.514 57.485 127.544 127.999 127.544h504.44z" />
<glyph unicode="&#xe979;" glyph-name="hearth" d="M938.667 649.191c0-65.46-25.531-128.236-70.967-174.506l-329.364-335.566c-14.55-14.824-38.141-14.824-52.691 0l-329.364 335.566c-94.596 96.377-94.596 252.635 0 349.012s247.966 96.377 342.562 0l13.148-13.396 13.142 13.39c45.421 46.298 107.037 72.309 171.287 72.309 64.247 0 125.861-26.009 171.281-72.303 45.438-46.275 70.967-109.050 70.967-174.506zM538.336 783.459h-52.691l26.346 26.842 26.346-26.842zM775.515 488.131l39.5 40.244c31.46 32.037 49.135 75.498 49.135 120.816s-17.675 88.779-49.135 120.816c-31.457 32.065-74.115 50.073-118.596 50.073s-87.138-18.008-118.589-50.067l-39.494-40.238c-14.55-14.824-38.141-14.824-52.691 0l-39.494 40.238c-65.495 66.728-171.684 66.728-237.179 0s-65.495-174.917 0-241.645l303.019-308.725 263.525 268.487z" />
<glyph unicode="&#xe97a;" glyph-name="export" d="M969.265 524.068l-129.464 129.464c-6.665 6.665-17.471 6.665-24.136 0-3.201-3.201-4.999-7.542-4.999-12.068v-78.264c0-4.713-3.821-8.533-8.533-8.533h-290.133c-23.564 0-42.667-19.103-42.667-42.667v0c0-23.564 19.103-42.667 42.667-42.667h290.133c4.713 0 8.533-3.821 8.533-8.533v-78.264c0-9.426 7.641-17.067 17.067-17.067 4.526 0 8.867 1.798 12.068 4.999l129.464 129.464c6.665 6.665 6.665 17.471 0 24.136zM85.333 256v512c0 47.36 38.4 85.333 85.333 85.333h512c47.128 0 85.333-38.205 85.333-85.333v-85.333c0-23.564-19.103-42.667-42.667-42.667v0c-23.564 0-42.667 19.103-42.667 42.667v64c0 11.782-9.551 21.333-21.333 21.333h-469.333c-11.782 0-21.333-9.551-21.333-21.333v-469.333c0-11.782 9.551-21.333 21.333-21.333h469.333c11.782 0 21.333 9.551 21.333 21.333v64c0 23.564 19.103 42.667 42.667 42.667v0c23.564 0 42.667-19.103 42.667-42.667v-85.333c0-47.128-38.205-85.333-85.333-85.333h-512c-47.128 0-85.333 38.205-85.333 85.333z" />
<glyph unicode="&#xe97b;" glyph-name="sections" d="M768 128h-512c-72.533 0-128 55.467-128 128v85.333c0 72.533 55.467 128 128 128h512c72.533 0 128-55.467 128-128v-85.333c0-72.533-55.467-128-128-128zM256 384c-25.6 0-42.667-17.067-42.667-42.667v-85.333c0-25.6 17.067-42.667 42.667-42.667h512c25.6 0 42.667 17.067 42.667 42.667v85.333c0 25.6-17.067 42.667-42.667 42.667h-512zM768 554.667h-512c-72.533 0-128 55.467-128 128v85.333c0 72.533 55.467 128 128 128h512c72.533 0 128-55.467 128-128v-85.333c0-72.533-55.467-128-128-128zM256 810.667c-25.6 0-42.667-17.067-42.667-42.667v-85.333c0-25.6 17.067-42.667 42.667-42.667h512c25.6 0 42.667 17.067 42.667 42.667v85.333c0 25.6-17.067 42.667-42.667 42.667h-512z" />
</font>
</defs>
</svg>
